<?xml version="1.0" encoding="UTF-8"?>
<svg version="1.1" xmlns="http://www.w3.org/2000/svg" width="225" height="225">
<path d="M0 0 C17.78961874 -0.58291226 17.78961874 -0.58291226 24 3 C27.83110837 7.22404256 29.1120512 11.39743986 29 17 C28.22909797 20.34057545 27.59201985 22.36569301 25.25 24.875 C23.61119021 27.14083285 23.61119021 27.14083285 24.625 30.75 C25.49423754 33.65651302 26.5401305 36.48036471 27.625 39.3125 C29 43 29 43 29 46 C26.03 46 23.06 46 20 46 C19.18167278 44.10667466 18.37057732 42.21022267 17.5625 40.3125 C16.88380859 38.72888672 16.88380859 38.72888672 16.19140625 37.11328125 C15.14552545 34.38027471 14.46479252 31.87957663 14 29 C12.02 29 10.04 29 8 29 C8.01160156 30.05960938 8.02320313 31.11921875 8.03515625 32.2109375 C8.04453476 33.59895658 8.05363489 34.98697755 8.0625 36.375 C8.07087891 37.07367188 8.07925781 37.77234375 8.08789062 38.4921875 C8.11328125 43.7734375 8.11328125 43.7734375 7 46 C4.36 46 1.72 46 -1 46 C-2.67469983 42.65060034 -2.16315821 38.87870853 -2.16796875 35.1953125 C-2.17296135 33.88202469 -2.17296135 33.88202469 -2.17805481 32.54220581 C-2.1831227 30.68781053 -2.18546318 28.83340611 -2.18530273 26.97900391 C-2.18748583 24.1434013 -2.20563353 21.3081898 -2.22460938 18.47265625 C-2.227544 16.67187633 -2.22952833 14.87109456 -2.23046875 13.0703125 C-2.23765427 12.22228058 -2.24483978 11.37424866 -2.25224304 10.5005188 C-2.2476281 9.30940994 -2.2476281 9.30940994 -2.24291992 8.09423828 C-2.24434494 7.39855743 -2.24576996 6.70287659 -2.24723816 5.9861145 C-1.95753771 3.65889174 -1.14623736 2.02998439 0 0 Z M8 9 C7.67 12.96 7.34 16.92 7 21 C8.588125 21.04125 10.17625 21.0825 11.8125 21.125 C12.70582031 21.14820313 13.59914062 21.17140625 14.51953125 21.1953125 C17.25402714 21.18285827 17.25402714 21.18285827 20 19 C20.58611157 14.38367847 20.58611157 14.38367847 18.76953125 10.2890625 C16.47582874 8.61815339 15.1188461 8.69048495 12.3125 8.8125 C10.889375 8.874375 9.46625 8.93625 8 9 Z " fill="#F8FDFA" transform="translate(141,74)"/>
<path d="M0 0 C4.520409 2.7122454 6.47906689 5.93720068 8.125 10.875 C9.55474686 19.97338911 10.3004286 31.30844246 5.3125 39.5 C1.41909295 43.72712766 -1.96111192 45.3500158 -7.7578125 45.875 C-12.60171565 45.875 -16.51420456 44.66123737 -20.6875 42.25 C-26.23506075 36.22693404 -26.92651005 28.02600524 -26.84765625 20.140625 C-26.41614563 12.52077894 -24.66476346 6.12055593 -18.875 0.875 C-13.34619461 -2.30825159 -5.91189164 -2.15325364 0 0 Z M-15.3125 9.4375 C-18.5070616 14.4210161 -18.49130395 21.08386809 -17.875 26.875 C-17.12024108 29.97735323 -16.25177405 32.98882687 -14.875 35.875 C-11.67229456 37.47635272 -8.35036616 37.36361584 -4.875 36.875 C-2.00269268 34.96012845 -1.11178227 33.66427425 -0.125 30.375 C1.03591358 19.11241949 1.03591358 19.11241949 -2.875 8.875 C-7.01307719 6.80596141 -11.51379309 7.00243147 -15.3125 9.4375 Z " fill="#FAFDFB" transform="translate(121.875,75.125)"/>
<path d="M0 0 C0.94371499 2.84437114 1.79848648 5.66658044 2.6015625 8.55078125 C2.8428891 9.40173874 3.0842157 10.25269623 3.33285522 11.12944031 C3.84203489 12.93164581 4.34785648 14.73480292 4.85058594 16.53881836 C5.61975723 19.29372223 6.40283274 22.04439699 7.1875 24.79492188 C7.68053217 26.54663748 8.17274652 28.29858352 8.6640625 30.05078125 C8.89839996 30.87177811 9.13273743 31.69277496 9.37417603 32.53865051 C10.45459527 36.45036675 11.30857584 39.8982118 11 44 C8.03 44 5.06 44 2 44 C1.01 39.71 0.02 35.42 -1 31 C-4.96 31.66 -8.92 32.32 -13 33 C-13.99 36.63 -14.98 40.26 -16 44 C-19.3 44 -22.6 44 -26 44 C-23.8012449 34.07489318 -21.29071712 24.36596999 -18.16796875 14.69140625 C-16.83329205 10.47311366 -15.67650914 6.22638157 -14.578125 1.94140625 C-14 0 -14 0 -13 -1 C-11.19570877 -1.28671723 -9.38033998 -1.50547961 -7.5625 -1.6875 C-6.57378906 -1.79449219 -5.58507812 -1.90148437 -4.56640625 -2.01171875 C-2 -2 -2 -2 0 0 Z M-8 11 C-8.99 14.96 -9.98 18.92 -11 23 C-8.69 23 -6.38 23 -4 23 C-4.66264086 16.93735778 -4.66264086 16.93735778 -6 11 C-6.66 11 -7.32 11 -8 11 Z " fill="#FAFDFB" transform="translate(45,76)"/>
<path d="M0 0 C4.269375 -0.020625 8.53875 -0.04125 12.9375 -0.0625 C14.95991821 -0.07615601 14.95991821 -0.07615601 17.02319336 -0.09008789 C18.6030603 -0.09383423 18.6030603 -0.09383423 20.21484375 -0.09765625 C21.84087524 -0.10551147 21.84087524 -0.10551147 23.49975586 -0.11352539 C26 0 26 0 27 1 C27 3.64 27 6.28 27 9 C21.06 9 15.12 9 9 9 C9 12.3 9 15.6 9 19 C9.99902344 18.98839844 10.99804688 18.97679688 12.02734375 18.96484375 C13.31769531 18.95582031 14.60804688 18.94679688 15.9375 18.9375 C17.22527344 18.92589844 18.51304687 18.91429688 19.83984375 18.90234375 C23 19 23 19 24 20 C24.04092937 22.33297433 24.04241723 24.66705225 24 27 C20.84493858 27.93619813 18.03413498 28.1057123 14.75 28.0625 C12.39875 28.0315625 12.39875 28.0315625 10 28 C9.67 31.3 9.34 34.6 9 38 C14.94 38 20.88 38 27 38 C27 40.64 27 43.28 27 46 C18.09 46 9.18 46 0 46 C0 30.82 0 15.64 0 0 Z " fill="#F7FCFA" transform="translate(180,74)"/>
<path d="M0 0 C1.20970459 0.00523682 2.41940918 0.01047363 3.66577148 0.01586914 C4.97094727 0.0190918 6.27612305 0.02231445 7.62084961 0.02563477 C9.00952213 0.03399138 10.39819401 0.04245634 11.78686523 0.05102539 C13.17944179 0.05603873 14.57202005 0.06060193 15.96459961 0.06469727 C19.38456394 0.07653105 22.80444367 0.09301659 26.22436523 0.11352539 C25.34936523 7.98852539 25.34936523 7.98852539 24.22436523 9.11352539 C22.808664 9.2000415 21.38877023 9.22057443 19.97045898 9.21118164 C19.11645508 9.20795898 18.26245117 9.20473633 17.38256836 9.20141602 C16.48473633 9.19303711 15.5869043 9.1846582 14.66186523 9.17602539 C13.76016602 9.17151367 12.8584668 9.16700195 11.92944336 9.16235352 C9.69438934 9.15052783 7.45936921 9.13259178 5.22436523 9.11352539 C5.22436523 13.40352539 5.22436523 17.69352539 5.22436523 22.11352539 C10.17436523 22.11352539 15.12436523 22.11352539 20.22436523 22.11352539 C21.22436523 24.11352539 21.22436523 24.11352539 20.28686523 27.23852539 C19.76092773 28.66165039 19.76092773 28.66165039 19.22436523 30.11352539 C17.26672141 30.30809244 15.30821203 30.49396787 13.34936523 30.67602539 C12.25881836 30.78043945 11.16827148 30.88485352 10.04467773 30.99243164 C7.22436523 31.11352539 7.22436523 31.11352539 5.22436523 30.11352539 C5.22436523 35.39352539 5.22436523 40.67352539 5.22436523 46.11352539 C2.25436523 46.11352539 -0.71563477 46.11352539 -3.77563477 46.11352539 C-3.80027876 39.72314743 -3.81846793 33.33279687 -3.83056641 26.94238281 C-3.83560784 24.76659666 -3.84244084 22.59081392 -3.85107422 20.41503906 C-3.86314814 17.29499472 -3.86886481 14.17499501 -3.87329102 11.05493164 C-3.8784523 10.07577286 -3.88361359 9.09661407 -3.88893127 8.08778381 C-3.88900681 7.18692551 -3.88908234 6.2860672 -3.88916016 5.35791016 C-3.89138077 4.5607106 -3.89360138 3.76351105 -3.89588928 2.94215393 C-3.69618073 -0.09467808 -3.06757909 0.12546612 0 0 Z " fill="#F9FDFB" transform="translate(66.775634765625,73.886474609375)"/>
<path d="M0 0 C1.32 0.33 2.64 0.66 4 1 C5.484375 3.6171875 5.484375 3.6171875 6.75 6.875 C7.39195312 8.47988281 7.39195312 8.47988281 8.046875 10.1171875 C9 13 9 13 9 16 C8.01 16 7.02 16 6 16 C5.67 14.68 5.34 13.36 5 12 C3.02 12.33 1.04 12.66 -1 13 C-1.33 13.99 -1.66 14.98 -2 16 C-3.32 15.67 -4.64 15.34 -6 15 C-4.02 10.05 -2.04 5.1 0 0 Z M1 5 C0.67 6.32 0.34 7.64 0 9 C0.99 9 1.98 9 3 9 C2.34 7.68 1.68 6.36 1 5 Z " fill="#F5FDF8" transform="translate(169,133)"/>
<path d="M0 0 C1.828125 0.1328125 1.828125 0.1328125 4 1 C5.484375 3.6171875 5.484375 3.6171875 6.75 6.875 C7.39195313 8.47988281 7.39195313 8.47988281 8.046875 10.1171875 C9 13 9 13 9 16 C8.01 16 7.02 16 6 16 C5.67 14.68 5.34 13.36 5 12 C3.02 12.33 1.04 12.66 -1 13 C-1.33 13.99 -1.66 14.98 -2 16 C-3.32 16 -4.64 16 -6 16 C-4.25192871 10.53262809 -2.34205919 5.24175152 0 0 Z M1 5 C0.67 6.32 0.34 7.64 0 9 C0.99 9 1.98 9 3 9 C2.34 7.68 1.68 6.36 1 5 Z " fill="#F4FBF5" transform="translate(56,133)"/>
<path d="M0 0 C0 1.32 0 2.64 0 4 C-1.134375 3.979375 -2.26875 3.95875 -3.4375 3.9375 C-6.81575674 3.58422523 -6.81575674 3.58422523 -8 5 C-8.16666667 8 -8.16666667 8 -8 11 C-6.81575674 12.41577477 -6.81575674 12.41577477 -3.4375 12.0625 C-1.7359375 12.0315625 -1.7359375 12.0315625 0 12 C0.33 12.99 0.66 13.98 1 15 C-2.10048928 16.55024464 -4.57894218 16.28992015 -8 16 C-11.38939556 13.86320715 -12.72582557 12.8225233 -14 9 C-12.7827502 2.69243287 -12.7827502 2.69243287 -10.375 0.5625 C-6.86570564 -0.26864866 -3.60331819 -0.12011061 0 0 Z " fill="#F8FDF8" transform="translate(33,133)"/>
<path d="M0 0 C8 0 8 0 10.0625 1.1875 C11.39826326 3.76997563 10.83707827 5.27949563 10 8 C9.67 8.66 9.34 9.32 9 10 C7.02 10 5.04 10 3 10 C3 11.98 3 13.96 3 16 C2.01 16 1.02 16 0 16 C0 10.72 0 5.44 0 0 Z M3 3 C3 4.32 3 5.64 3 7 C4.32 7 5.64 7 7 7 C7 5.68 7 4.36 7 3 C5.68 3 4.36 3 3 3 Z " fill="#F0FAF2" transform="translate(84,133)"/>
<path d="M0 0 C3.63 0 7.26 0 11 0 C11 0.99 11 1.98 11 3 C9.68 3 8.36 3 7 3 C7 7.29 7 11.58 7 16 C6.01 16 5.02 16 4 16 C4 11.71 4 7.42 4 3 C2.35 3 0.7 3 -1 3 C-0.67 2.01 -0.34 1.02 0 0 Z " fill="#F3FCF4" transform="translate(136,133)"/>
<path d="M0 0 C0.99 0 1.98 0 3 0 C3 4.29 3 8.58 3 13 C5.31 13 7.62 13 10 13 C10 13.99 10 14.98 10 16 C6.7 16 3.4 16 0 16 C0 10.72 0 5.44 0 0 Z " fill="#F2FCF9" transform="translate(197,133)"/>
<path d="M0 0 C0.99 0 1.98 0 3 0 C3 5.28 3 10.56 3 16 C2.01 16 1.02 16 0 16 C0 10.72 0 5.44 0 0 Z " fill="#F8FEF8" transform="translate(114,133)"/>
<path d="M0 0 C2 0.6875 2 0.6875 4 2.6875 C3.6730244 5.30330479 3.17960932 7.32828137 2 9.6875 C0.35 9.3575 -1.3 9.0275 -3 8.6875 C-2.34 8.0275 -1.68 7.3675 -1 6.6875 C-1 5.3675 -1 4.0475 -1 2.6875 C-1.99 2.0275 -2.98 1.3675 -4 0.6875 C-2 -0.3125 -2 -0.3125 0 0 Z " fill="#FDFEF9" transform="translate(91,133.3125)"/>
<path d="M0 0 C2 1 2 1 3 3 C3.039992 4.99960012 3.04346799 7.00047242 3 9 C2.34 8.34 1.68 7.68 1 7 C0.34 7.66 -0.32 8.32 -1 9 C-2.60031344 5.79937313 -1.03173691 3.27728194 0 0 Z " fill="#F1F9EB" transform="translate(21,135)"/>
<path d="M0 0 C0.66 1.32 1.32 2.64 2 4 C1.34 4 0.68 4 0 4 C0 4.99 0 5.98 0 7 C-1.65 7 -3.3 7 -5 7 C-3.68 6.67 -2.36 6.34 -1 6 C-1.66 4.35 -2.32 2.7 -3 1 C-2.01 0.67 -1.02 0.34 0 0 Z " fill="#F2F7ED" transform="translate(173,136)"/>
</svg>
