<?xml version="1.0" encoding="UTF-8"?>
<svg version="1.1" xmlns="http://www.w3.org/2000/svg" width="500" height="500">
<path d="M0 0 C0.103125 -0.78375 0.20625 -1.5675 0.3125 -2.375 C1 -5 1 -5 4 -7 C7.21484375 -7.30078125 7.21484375 -7.30078125 10.9375 -7.3125 C12.16339844 -7.32925781 13.38929688 -7.34601563 14.65234375 -7.36328125 C18.3887551 -6.95781304 19.51216112 -6.77012566 22 -4 C22.44242432 -0.8936083 22.6286485 1.86961941 22.64453125 4.984375 C22.66393768 5.89650757 22.68334412 6.80864014 22.70333862 7.74841309 C22.76051719 10.74900773 22.78766259 13.74897593 22.8125 16.75 C22.84219349 18.81869449 22.87255418 20.88737951 22.90356445 22.95605469 C23.08024493 36.72312555 22.99630261 50.48557043 22.6875 64.25 C22.67071198 65.09300659 22.65392395 65.93601318 22.6366272 66.80456543 C22.5858526 69.16707923 22.52061113 71.52865453 22.44921875 73.890625 C22.43446503 74.58740356 22.4197113 75.28418213 22.4045105 76.0020752 C22.23130986 80.76869014 22.23130986 80.76869014 20 83 C16.5523835 84.21726778 13.06747657 84.23403634 9.4375 84.3125 C8.30183594 84.34988281 7.16617188 84.38726562 5.99609375 84.42578125 C3 84 3 84 1.09765625 82.16796875 C0 80 0 80 0 77 C-0.94101562 77.49371094 -1.88203125 77.98742187 -2.8515625 78.49609375 C-4.1091536 79.14365932 -5.36697864 79.79077071 -6.625 80.4375 C-7.24246094 80.76298828 -7.85992187 81.08847656 -8.49609375 81.42382812 C-17.61127467 86.07736786 -28.91707975 86.38878096 -38.79296875 83.80859375 C-52.22541607 78.88732544 -62.06814837 68.50128104 -68.02734375 55.8125 C-72.10883208 44.97868766 -71.56762981 30.28471355 -67.3203125 19.63671875 C-61.43445954 7.8824266 -52.42918926 -1.34374783 -40 -6 C-25.28904874 -10.44439615 -13.01600783 -6.98197619 0 0 Z M-44 21 C-48.83649175 28.58896673 -50.7832758 35.19773311 -49.3125 44.0625 C-47.53058019 51.66768718 -44.6103803 56.25474797 -38.12890625 60.70703125 C-31.09452353 64.97928938 -25.11763872 65.8937308 -17 64 C-8.89237251 60.74191167 -3.58291434 55.80070385 0.203125 47.96484375 C3.23425946 40.49101713 2.13531017 34.00268811 -0.73828125 26.65234375 C-3.92372951 19.95599896 -8.40447012 16.1756255 -15 13 C-25.83310174 9.71256179 -36.24329468 12.89071717 -44 21 Z " fill="#F6FBFB" transform="translate(439,213)"/>
<path d="M0 0 C0.73283203 0.00773438 1.46566406 0.01546875 2.22070312 0.0234375 C2.94966797 0.01570312 3.67863281 0.00796875 4.4296875 0 C8.24158536 0.01397579 10.04131422 0.11217823 13.28320312 2.2734375 C14.47070312 4.8984375 14.47070312 4.8984375 15.28320312 7.2734375 C16.53037109 6.64115234 16.53037109 6.64115234 17.80273438 5.99609375 C18.88941406 5.44824219 19.97609375 4.90039062 21.09570312 4.3359375 C22.17464844 3.79066406 23.25359375 3.24539062 24.36523438 2.68359375 C32.88235656 -1.43244522 45.29937884 -1.15663163 54.28320312 1.7734375 C65.10474916 6.51826922 71.0205608 13.60622804 75.53320312 24.2109375 C77.53867094 32.39993107 77.45253468 40.91548194 77.48632812 49.30078125 C77.4920282 50.41151505 77.49772827 51.52224884 77.50360107 52.66664124 C77.51298583 54.9952806 77.51955883 57.32393285 77.5234375 59.65258789 C77.53324172 63.22500042 77.56436519 66.79686031 77.59570312 70.36914062 C77.60222493 72.63801744 77.60747861 74.90689833 77.61132812 77.17578125 C77.62367493 78.24448959 77.63602173 79.31319794 77.64874268 80.41429138 C77.64574158 81.40284622 77.64274048 82.39140106 77.63964844 83.40991211 C77.64511688 84.71369057 77.64511688 84.71369057 77.6506958 86.04380798 C77.28320312 88.2734375 77.28320312 88.2734375 75.99139404 90.05250549 C73.08154559 92.13232402 69.72275812 91.70351934 66.28320312 91.6484375 C65.55875 91.66003906 64.83429688 91.67164063 64.08789062 91.68359375 C58.81654039 91.65441653 58.81654039 91.65441653 56.57678223 90.05448914 C54.87457471 87.71082149 54.90520666 86.26191977 54.8984375 83.37817383 C54.88832642 82.3831636 54.87821533 81.38815338 54.86779785 80.36299133 C54.87081909 79.28800888 54.87384033 78.21302643 54.87695312 77.10546875 C54.86611694 75.99668869 54.85528076 74.88790863 54.84411621 73.74552917 C54.80978146 70.19227308 54.7942542 66.63933781 54.78320312 63.0859375 C54.76860049 58.42547397 54.73480245 53.76572333 54.68945312 49.10546875 C54.69247437 48.04060745 54.69549561 46.97574615 54.6986084 45.87861633 C54.6206755 38.08792648 53.46137664 32.57181454 49.09570312 25.9609375 C45.01884385 22.06527197 41.41880905 20.38975055 35.75585938 20.1796875 C30.07637126 20.52131085 26.74437115 21.81603228 22.28320312 25.2734375 C21.62320313 25.2734375 20.96320313 25.2734375 20.28320312 25.2734375 C19.60758565 26.9364959 18.94387031 28.60438355 18.28320312 30.2734375 C17.51762085 31.97910889 17.51762085 31.97910889 16.73657227 33.71923828 C14.72579977 39.12224294 14.84241557 44.43519796 14.84179688 50.140625 C14.82858902 51.25656036 14.81538116 52.37249573 14.80177307 53.52224731 C14.7610692 57.06433694 14.73924274 60.6061676 14.72070312 64.1484375 C14.69693608 67.71205357 14.66891084 71.27542523 14.62892151 74.83889771 C14.60450768 77.05127414 14.58969544 79.26378105 14.58531189 81.47628784 C14.57512527 82.4713736 14.56493866 83.46645935 14.55444336 84.49169922 C14.5501683 85.36913788 14.54589325 86.24657654 14.54148865 87.15060425 C14.28320312 89.2734375 14.28320312 89.2734375 12.28320312 91.2734375 C9.43042758 91.47240031 6.69652941 91.55168681 3.84570312 91.5234375 C2.68071289 91.53503906 2.68071289 91.53503906 1.4921875 91.546875 C-2.41731855 91.53340556 -4.39626719 91.48712395 -7.71679688 89.2734375 C-9.2995587 80.90481178 -8.87118087 72.26397563 -8.84179688 63.7734375 C-8.84024597 62.98528656 -8.83869507 62.19713562 -8.83709717 61.38510132 C-8.80821616 48.70237338 -8.65786161 36.02088551 -8.3973999 23.34082031 C-8.36036855 21.50608125 -8.32638606 19.67127809 -8.29547119 17.83642578 C-8.2505843 15.26952617 -8.19270101 12.70325872 -8.13085938 10.13671875 C-8.1192981 9.36761673 -8.10773682 8.59851471 -8.0958252 7.80610657 C-7.90829366 1.17151295 -6.65045479 0.02442775 0 0 Z " fill="#F6FBFB" transform="translate(76.716796875,205.7265625)"/>
<path d="M0 0 C0.90298828 -0.01611328 1.80597656 -0.03222656 2.73632812 -0.04882812 C13.97879631 -0.05696894 23.27404212 4.63608669 31.609375 12.16015625 C42.57461074 23.97446998 45.2415299 36.07252336 44.9296875 51.61328125 C44.38523093 63.48513738 38.8003863 71.99590778 30.5625 80.3125 C19.67503066 89.63966322 7.73351655 93.23114933 -6.4375 92.3125 C-17.93563693 90.60155403 -28.77904518 85.26431593 -36.21484375 76.12890625 C-45.35925952 63.7365796 -48.20372944 50.62749425 -46.01171875 35.34375 C-43.34481088 23.95621702 -36.27435544 13.8735127 -26.57421875 7.40234375 C-17.6471076 1.98826762 -10.36385607 -0.03682962 0 0 Z M-21.13671875 29.296875 C-26.5254979 36.78338402 -26.50244085 44.50590217 -25.4375 53.3125 C-23.48589851 60.78793262 -17.74332139 66.22106198 -11.375 70.25 C-4.66442023 72.67916915 4.45569598 72.68841485 11 69.8125 C17.08126315 66.10632246 21.9734469 60.3261834 24.12890625 53.51171875 C25.5553015 46.27693923 25.388926 38.75767601 21.5625 32.3125 C17.67091928 27.0635909 13.84214627 22.59600773 7.5625 20.3125 C6.94375 20.085625 6.325 19.85875 5.6875 19.625 C-5.19100095 18.02522045 -13.96617662 20.92300052 -21.13671875 29.296875 Z " fill="#F5FAFA" transform="translate(205.4375,205.6875)"/>
<path d="M0 0 C0.76828125 -0.02449219 1.5365625 -0.04898438 2.328125 -0.07421875 C3.07320313 -0.07808594 3.81828125 -0.08195313 4.5859375 -0.0859375 C5.26446777 -0.09415527 5.94299805 -0.10237305 6.64208984 -0.11083984 C9.72892009 0.64547537 10.69065682 1.82958405 12.625 4.375 C14.03516177 7.58402012 15.07486025 10.88777575 16.12109375 14.23046875 C16.43651627 15.20550858 16.75193878 16.1805484 17.07691956 17.18513489 C18.08358094 20.30737328 19.07298704 23.43479013 20.0625 26.5625 C20.723537 28.61688183 21.38563616 30.6709222 22.04882812 32.72460938 C24.99030666 41.86778983 27.86615054 51.03001843 30.59765625 60.23828125 C30.80708359 60.94067429 31.01651093 61.64306732 31.23228455 62.366745 C32.625 67.12888599 32.625 67.12888599 32.625 69.375 C33.285 69.375 33.945 69.375 34.625 69.375 C34.79153076 68.74408447 34.95806152 68.11316895 35.12963867 67.46313477 C37.21311223 59.68637524 39.54054935 51.99776744 41.9375 44.3125 C42.13442444 43.6793689 42.33134888 43.04623779 42.53424072 42.3939209 C45.56094183 32.66644238 48.6619123 22.96663779 51.96777344 13.33007812 C52.45500804 11.88068187 52.9242632 10.42521487 53.38378906 8.96679688 C53.6412793 8.15791016 53.89876953 7.34902344 54.1640625 6.515625 C54.39561035 5.77344727 54.6271582 5.03126953 54.86572266 4.26660156 C55.625 2.375 55.625 2.375 57.625 0.375 C59.45678711 0.11621094 59.45678711 0.11621094 61.65234375 0.109375 C62.84053711 0.10550781 62.84053711 0.10550781 64.05273438 0.1015625 C65.29506836 0.11316406 65.29506836 0.11316406 66.5625 0.125 C67.38685547 0.11726562 68.21121094 0.10953125 69.06054688 0.1015625 C69.85396484 0.10414063 70.64738281 0.10671875 71.46484375 0.109375 C72.55333618 0.11275879 72.55333618 0.11275879 73.66381836 0.11621094 C75.625 0.375 75.625 0.375 78.625 2.375 C77.08369991 11.68740593 74.095852 20.40847774 71.0625 29.3125 C70.52214941 30.91392907 69.982443 32.51557563 69.44335938 34.11743164 C68.35818494 37.33968566 67.27008179 40.56092404 66.17919922 43.78125 C63.97672144 50.28575748 61.79942407 56.7985661 59.625 63.3125 C59.10184204 64.86988892 59.10184204 64.86988892 58.56811523 66.45874023 C58.23626221 67.45075439 57.90440918 68.44276855 57.5625 69.46484375 C57.24152344 70.41987793 56.92054688 71.37491211 56.58984375 72.35888672 C55.89222789 74.53964237 55.24474472 76.73664941 54.62890625 78.94189453 C54.29761719 80.1173584 53.96632813 81.29282227 53.625 82.50390625 C53.33625 83.57842041 53.0475 84.65293457 52.75 85.76000977 C51.625 88.375 51.625 88.375 49.8984375 89.72314453 C44.66247794 91.22443448 39.02656903 90.70105816 33.625 90.6875 C31.69914062 90.71166992 31.69914062 90.71166992 29.734375 90.73632812 C27.88585937 90.73729492 27.88585937 90.73729492 26 90.73828125 C24.87335938 90.74126221 23.74671875 90.74424316 22.5859375 90.74731445 C19.21414471 90.3233382 18.10754721 89.62955898 15.625 87.375 C14.60385132 85.36260986 14.60385132 85.36260986 13.86083984 83.02832031 C13.57276459 82.14656128 13.28468933 81.26480225 12.98788452 80.35632324 C12.690242 79.39826782 12.39259949 78.4402124 12.0859375 77.453125 C11.7630777 76.45253052 11.4402179 75.45193604 11.10757446 74.42102051 C10.05860542 71.15971413 9.02904021 67.89264355 8 64.625 C7.28635119 62.39056852 6.57150362 60.15651956 5.85546875 57.92285156 C4.43217837 53.4778883 3.01587927 49.03078745 1.60449219 44.58203125 C-0.11320717 39.17887917 -1.86888886 33.78930393 -3.6484375 28.40625 C-4.1217268 26.96847213 -4.59487762 25.53064866 -5.06787109 24.09277344 C-5.91721957 21.51091028 -6.77253942 18.9313002 -7.63134766 16.35253906 C-8.18508057 14.65436035 -8.18508057 14.65436035 -8.75 12.921875 C-9.06710938 11.96120117 -9.38421875 11.00052734 -9.7109375 10.01074219 C-10.39131686 7.31023644 -10.65047505 5.14518658 -10.375 2.375 C-7.36999688 -0.63000312 -4.02160893 0.00668041 0 0 Z " fill="#F6FBFB" transform="translate(257.375,206.625)"/>
<path d="M0 0 C1.22847656 -0.02835938 2.45695312 -0.05671875 3.72265625 -0.0859375 C6.9375 0.375 6.9375 0.375 8.61515808 1.90319824 C10.46107488 5.35369794 10.34843093 8.56822129 10.30981445 12.38476562 C10.31346512 13.18847092 10.31711578 13.99217621 10.32087708 14.82023621 C10.32897605 17.47412312 10.31537805 20.12739821 10.30078125 22.78125 C10.30026256 24.62683105 10.30078059 26.47241266 10.30229187 28.31799316 C10.30220218 32.18489841 10.29177845 36.05159506 10.27368164 39.91845703 C10.25099463 44.87511195 10.2504507 49.83146206 10.25719929 54.7881546 C10.26054078 58.59884347 10.25390576 62.40946286 10.24407005 66.22013855 C10.24022089 68.04778174 10.23906867 69.87543267 10.2406559 71.70307922 C10.24102676 74.25728075 10.22840054 76.81109155 10.2121582 79.36523438 C10.21463562 80.12068039 10.21711304 80.8761264 10.21966553 81.65446472 C10.18184857 85.38071217 10.01156331 88.21085478 7.9375 91.375 C5.16640693 91.42892397 2.39636182 91.46863455 -0.375 91.5 C-1.16068359 91.51675781 -1.94636719 91.53351563 -2.75585938 91.55078125 C-3.51318359 91.55722656 -4.27050781 91.56367188 -5.05078125 91.5703125 C-5.74727783 91.58078613 -6.44377441 91.59125977 -7.16137695 91.60205078 C-9.0625 91.375 -9.0625 91.375 -12.0625 89.375 C-13.24057574 85.84077278 -13.21011363 82.64670318 -13.20776367 78.96948242 C-13.21112228 78.21790359 -13.2144809 77.46632477 -13.21794128 76.69197083 C-13.22744778 74.20478669 -13.22939438 71.71766993 -13.23046875 69.23046875 C-13.23368203 67.50035067 -13.23704616 65.77023286 -13.24055481 64.04011536 C-13.24654567 60.41109589 -13.2483948 56.78210024 -13.24780273 53.15307617 C-13.24770123 48.50937532 -13.2613419 43.86582776 -13.27857494 39.2221632 C-13.28971077 35.64731652 -13.29172144 32.07250667 -13.29119301 28.49764442 C-13.29237118 26.78607976 -13.29678381 25.07451409 -13.30452538 23.36296654 C-13.31435526 20.96477001 -13.31143525 18.56690335 -13.30541992 16.16870117 C-13.31103943 15.46562836 -13.31665894 14.76255554 -13.32244873 14.03817749 C-13.29542796 9.7850818 -12.71065581 6.30224681 -11.0625 2.375 C-7.79888979 -0.24497478 -4.05253248 0.04261338 0 0 Z " fill="#F4FBFB" transform="translate(49.0625,205.625)"/>
<path d="M0 0 C1.23492187 -0.04898438 2.46984375 -0.09796875 3.7421875 -0.1484375 C7.125 0.375 7.125 0.375 9.30705261 2.47006226 C11.54935282 6.05308262 11.61496071 8.16972597 11.5949707 12.37744141 C11.5971611 13.0627594 11.5993515 13.74807739 11.60160828 14.4541626 C11.60391287 16.71212628 11.57768435 18.96877319 11.55078125 21.2265625 C11.54585148 22.80731799 11.54255642 24.38807934 11.54081726 25.96884155 C11.53318225 29.28264019 11.51264996 32.59600618 11.48168945 35.90966797 C11.44230985 40.12905602 11.42410832 44.34816202 11.41438007 48.56771278 C11.40432938 52.62069987 11.38451202 56.67362074 11.36328125 60.7265625 C11.3598855 61.48692432 11.35648975 62.24728615 11.3529911 63.03068924 C11.3158773 69.93135139 11.24693845 76.83703079 10.86010742 83.72802734 C10.81585129 84.56393402 10.77159515 85.3998407 10.72599792 86.26107788 C9.90802488 89.13817817 8.69350566 89.92514939 6.125 91.375 C3.48932397 91.61512667 1.12188175 91.70536419 -1.5 91.625 C-2.180625 91.61984375 -2.86125 91.6146875 -3.5625 91.609375 C-8.56441327 91.53029337 -8.56441327 91.53029337 -10.875 90.375 C-12.0804966 86.75851019 -12.03043548 83.44346819 -12.03613281 79.67822266 C-12.04109772 78.89577682 -12.04606262 78.11333099 -12.05117798 77.30717468 C-12.06578728 74.71779502 -12.07259931 72.12847661 -12.078125 69.5390625 C-12.08387718 67.73928831 -12.08963491 65.93951414 -12.09539795 64.13973999 C-12.10590423 60.36529251 -12.11174943 56.5908663 -12.11523438 52.81640625 C-12.12072031 47.98197628 -12.14475199 43.14782778 -12.17320633 38.3134861 C-12.19183697 34.59542012 -12.19703852 30.87742192 -12.19857025 27.1593132 C-12.20159602 25.37713455 -12.209622 23.59495707 -12.22275543 21.81282425 C-12.23982603 19.31852079 -12.23793345 16.82490471 -12.23144531 14.33056641 C-12.2406601 13.5958461 -12.24987488 12.86112579 -12.2593689 12.10414124 C-12.22345403 7.69255574 -11.59629334 4.88167441 -8.875 1.375 C-5.93961547 -0.09269227 -3.26722984 0.08830351 0 0 Z " fill="#F4FAF9" transform="translate(352.875,205.625)"/>
<path d="M0 0 C0.73283203 0.00773438 1.46566406 0.01546875 2.22070312 0.0234375 C2.94966797 0.01570312 3.67863281 0.00796875 4.4296875 0 C8.24158536 0.01397579 10.04131422 0.11217823 13.28320312 2.2734375 C14.47070312 4.8984375 14.47070312 4.8984375 15.28320312 7.2734375 C16.53037109 6.64115234 16.53037109 6.64115234 17.80273438 5.99609375 C18.88941406 5.44824219 19.97609375 4.90039062 21.09570312 4.3359375 C22.17464844 3.79066406 23.25359375 3.24539062 24.36523438 2.68359375 C32.44172022 -1.21950048 43.19782742 -0.891616 51.88085938 1.09765625 C58.94758463 3.60220051 58.94758463 3.60220051 60.28320312 6.2734375 C58.13591172 5.99270677 55.99037119 5.69855251 53.84570312 5.3984375 C52.65074219 5.23601562 51.45578125 5.07359375 50.22460938 4.90625 C49.25394531 4.69742188 48.28328125 4.48859375 47.28320312 4.2734375 C46.78820312 3.2834375 46.78820312 3.2834375 46.28320312 2.2734375 C44.03346865 2.2192995 41.7833593 2.18058259 39.53320312 2.1484375 C37.65375 2.11363281 37.65375 2.11363281 35.73632812 2.078125 C32.4796945 2.26232373 31.01965194 2.68132182 28.28320312 4.2734375 C25.53320312 4.3984375 25.53320312 4.3984375 23.28320312 4.2734375 C23.28320312 4.9334375 23.28320312 5.5934375 23.28320312 6.2734375 C22.33445312 6.6859375 21.38570312 7.0984375 20.40820312 7.5234375 C17.27603688 9.2774506 16.41819707 9.98195507 15.28320312 13.2734375 C13.63320312 13.2734375 11.98320313 13.2734375 10.28320312 13.2734375 C10.28320312 10.3034375 10.28320312 7.3334375 10.28320312 4.2734375 C5.00320312 4.2734375 -0.27679688 4.2734375 -5.71679688 4.2734375 C-5.71679688 31.9934375 -5.71679688 59.7134375 -5.71679688 88.2734375 C0.22320312 88.2734375 6.16320312 88.2734375 12.28320312 88.2734375 C12.28320312 70.1234375 12.28320312 51.9734375 12.28320312 33.2734375 C12.94320312 33.2734375 13.60320312 33.2734375 14.28320312 33.2734375 C14.61320312 31.6234375 14.94320312 29.9734375 15.28320312 28.2734375 C15.94320312 28.2734375 16.60320312 28.2734375 17.28320312 28.2734375 C17.55132812 27.6340625 17.81945312 26.9946875 18.09570312 26.3359375 C19.28320312 24.2734375 19.28320312 24.2734375 22.28320312 23.2734375 C22.61320312 22.2834375 22.94320312 21.2934375 23.28320312 20.2734375 C30.09054628 17.33390296 39.19154198 16.83970179 46.18164062 19.2890625 C46.87515625 19.61390625 47.56867188 19.93875 48.28320312 20.2734375 C48.28320312 21.2634375 48.28320312 22.2534375 48.28320312 23.2734375 C49.27320313 23.2734375 50.26320312 23.2734375 51.28320312 23.2734375 C51.28320312 23.9334375 51.28320312 24.5934375 51.28320312 25.2734375 C51.94320312 25.2734375 52.60320312 25.2734375 53.28320312 25.2734375 C53.28320312 26.2634375 53.28320312 27.2534375 53.28320312 28.2734375 C53.94320312 28.2734375 54.60320312 28.2734375 55.28320312 28.2734375 C55.59257812 29.2428125 55.90195313 30.2121875 56.22070312 31.2109375 C56.97843654 34.11409542 56.97843654 34.11409542 58.28320312 35.2734375 C58.37660746 36.90018528 58.40065483 38.53097801 58.39672852 40.16040039 C58.39661522 41.72190575 58.39661522 41.72190575 58.39649963 43.31495667 C58.39133835 44.4472319 58.38617706 45.57950714 58.38085938 46.74609375 C58.37944443 47.89887314 58.37802948 49.05165253 58.37657166 50.23936462 C58.37095318 53.93824814 58.35839754 57.63707214 58.34570312 61.3359375 C58.34069051 63.83658767 58.33612719 66.33723879 58.33203125 68.83789062 C58.32097774 74.98309601 58.30370073 81.12825665 58.28320312 87.2734375 C63.56320313 87.2734375 68.84320313 87.2734375 74.28320312 87.2734375 C74.28320312 66.1534375 74.28320312 45.0334375 74.28320312 23.2734375 C78.25427448 31.2155802 77.45114035 40.56950188 77.48632812 49.30078125 C77.4920282 50.41151505 77.49772827 51.52224884 77.50360107 52.66664124 C77.51298583 54.9952806 77.51955883 57.32393285 77.5234375 59.65258789 C77.53324172 63.22500042 77.56436519 66.79686031 77.59570312 70.36914062 C77.60222493 72.63801744 77.60747861 74.90689833 77.61132812 77.17578125 C77.62367493 78.24448959 77.63602173 79.31319794 77.64874268 80.41429138 C77.64574158 81.40284622 77.64274048 82.39140106 77.63964844 83.40991211 C77.64511688 84.71369057 77.64511688 84.71369057 77.6506958 86.04380798 C77.28320312 88.2734375 77.28320312 88.2734375 75.99139404 90.05250549 C73.08154559 92.13232402 69.72275812 91.70351934 66.28320312 91.6484375 C65.55875 91.66003906 64.83429688 91.67164063 64.08789062 91.68359375 C58.81654039 91.65441653 58.81654039 91.65441653 56.57678223 90.05448914 C54.87457471 87.71082149 54.90520666 86.26191977 54.8984375 83.37817383 C54.88832642 82.3831636 54.87821533 81.38815338 54.86779785 80.36299133 C54.87081909 79.28800888 54.87384033 78.21302643 54.87695312 77.10546875 C54.86611694 75.99668869 54.85528076 74.88790863 54.84411621 73.74552917 C54.80978146 70.19227308 54.7942542 66.63933781 54.78320312 63.0859375 C54.76860049 58.42547397 54.73480245 53.76572333 54.68945312 49.10546875 C54.69247437 48.04060745 54.69549561 46.97574615 54.6986084 45.87861633 C54.6206755 38.08792648 53.46137664 32.57181454 49.09570312 25.9609375 C45.01884385 22.06527197 41.41880905 20.38975055 35.75585938 20.1796875 C30.07637126 20.52131085 26.74437115 21.81603228 22.28320312 25.2734375 C21.62320313 25.2734375 20.96320313 25.2734375 20.28320312 25.2734375 C19.60758565 26.9364959 18.94387031 28.60438355 18.28320312 30.2734375 C17.51762085 31.97910889 17.51762085 31.97910889 16.73657227 33.71923828 C14.72579977 39.12224294 14.84241557 44.43519796 14.84179688 50.140625 C14.82858902 51.25656036 14.81538116 52.37249573 14.80177307 53.52224731 C14.7610692 57.06433694 14.73924274 60.6061676 14.72070312 64.1484375 C14.69693608 67.71205357 14.66891084 71.27542523 14.62892151 74.83889771 C14.60450768 77.05127414 14.58969544 79.26378105 14.58531189 81.47628784 C14.57512527 82.4713736 14.56493866 83.46645935 14.55444336 84.49169922 C14.5501683 85.36913788 14.54589325 86.24657654 14.54148865 87.15060425 C14.28320312 89.2734375 14.28320312 89.2734375 12.28320312 91.2734375 C9.43042758 91.47240031 6.69652941 91.55168681 3.84570312 91.5234375 C2.68071289 91.53503906 2.68071289 91.53503906 1.4921875 91.546875 C-2.41731855 91.53340556 -4.39626719 91.48712395 -7.71679688 89.2734375 C-9.2995587 80.90481178 -8.87118087 72.26397563 -8.84179688 63.7734375 C-8.84024597 62.98528656 -8.83869507 62.19713562 -8.83709717 61.38510132 C-8.80821616 48.70237338 -8.65786161 36.02088551 -8.3973999 23.34082031 C-8.36036855 21.50608125 -8.32638606 19.67127809 -8.29547119 17.83642578 C-8.2505843 15.26952617 -8.19270101 12.70325872 -8.13085938 10.13671875 C-8.1192981 9.36761673 -8.10773682 8.59851471 -8.0958252 7.80610657 C-7.90829366 1.17151295 -6.65045479 0.02442775 0 0 Z " fill="#AFBCC4" transform="translate(76.716796875,205.7265625)"/>
<path d="M0 0 C0.76828125 -0.02449219 1.5365625 -0.04898438 2.328125 -0.07421875 C3.07320313 -0.07808594 3.81828125 -0.08195313 4.5859375 -0.0859375 C5.26446777 -0.09415527 5.94299805 -0.10237305 6.64208984 -0.11083984 C9.72892009 0.64547537 10.69065682 1.82958405 12.625 4.375 C14.03516177 7.58402012 15.07486025 10.88777575 16.12109375 14.23046875 C16.43651627 15.20550858 16.75193878 16.1805484 17.07691956 17.18513489 C18.08358094 20.30737328 19.07298704 23.43479013 20.0625 26.5625 C20.723537 28.61688183 21.38563616 30.6709222 22.04882812 32.72460938 C24.99030666 41.86778983 27.86615054 51.03001843 30.59765625 60.23828125 C30.80708359 60.94067429 31.01651093 61.64306732 31.23228455 62.366745 C32.625 67.12888599 32.625 67.12888599 32.625 69.375 C33.285 69.375 33.945 69.375 34.625 69.375 C34.79153076 68.74408447 34.95806152 68.11316895 35.12963867 67.46313477 C37.21311223 59.68637524 39.54054935 51.99776744 41.9375 44.3125 C42.13442444 43.6793689 42.33134888 43.04623779 42.53424072 42.3939209 C45.56094183 32.66644238 48.6619123 22.96663779 51.96777344 13.33007812 C52.45500804 11.88068187 52.9242632 10.42521487 53.38378906 8.96679688 C53.6412793 8.15791016 53.89876953 7.34902344 54.1640625 6.515625 C54.39561035 5.77344727 54.6271582 5.03126953 54.86572266 4.26660156 C55.625 2.375 55.625 2.375 57.625 0.375 C59.45678711 0.11621094 59.45678711 0.11621094 61.65234375 0.109375 C62.84053711 0.10550781 62.84053711 0.10550781 64.05273438 0.1015625 C65.29506836 0.11316406 65.29506836 0.11316406 66.5625 0.125 C67.38685547 0.11726562 68.21121094 0.10953125 69.06054688 0.1015625 C69.85396484 0.10414063 70.64738281 0.10671875 71.46484375 0.109375 C72.55333618 0.11275879 72.55333618 0.11275879 73.66381836 0.11621094 C75.625 0.375 75.625 0.375 78.625 2.375 C77.08369991 11.68740593 74.095852 20.40847774 71.0625 29.3125 C70.52214941 30.91392907 69.982443 32.51557563 69.44335938 34.11743164 C68.35818494 37.33968566 67.27008179 40.56092404 66.17919922 43.78125 C63.97672144 50.28575748 61.79942407 56.7985661 59.625 63.3125 C59.10184204 64.86988892 59.10184204 64.86988892 58.56811523 66.45874023 C58.23626221 67.45075439 57.90440918 68.44276855 57.5625 69.46484375 C57.24152344 70.41987793 56.92054688 71.37491211 56.58984375 72.35888672 C55.89222789 74.53964237 55.24474472 76.73664941 54.62890625 78.94189453 C54.29761719 80.1173584 53.96632813 81.29282227 53.625 82.50390625 C53.33625 83.57842041 53.0475 84.65293457 52.75 85.76000977 C51.625 88.375 51.625 88.375 49.8984375 89.72314453 C44.66247794 91.22443448 39.02656903 90.70105816 33.625 90.6875 C31.69914062 90.71166992 31.69914062 90.71166992 29.734375 90.73632812 C27.88585937 90.73729492 27.88585937 90.73729492 26 90.73828125 C24.87335938 90.74126221 23.74671875 90.74424316 22.5859375 90.74731445 C19.21414471 90.3233382 18.10754721 89.62955898 15.625 87.375 C14.60385132 85.36260986 14.60385132 85.36260986 13.86083984 83.02832031 C13.57276459 82.14656128 13.28468933 81.26480225 12.98788452 80.35632324 C12.690242 79.39826782 12.39259949 78.4402124 12.0859375 77.453125 C11.7630777 76.45253052 11.4402179 75.45193604 11.10757446 74.42102051 C10.05860542 71.15971413 9.02904021 67.89264355 8 64.625 C7.28635119 62.39056852 6.57150362 60.15651956 5.85546875 57.92285156 C4.43217837 53.4778883 3.01587927 49.03078745 1.60449219 44.58203125 C-0.11320717 39.17887917 -1.86888886 33.78930393 -3.6484375 28.40625 C-4.1217268 26.96847213 -4.59487762 25.53064866 -5.06787109 24.09277344 C-5.91721957 21.51091028 -6.77253942 18.9313002 -7.63134766 16.35253906 C-8.18508057 14.65436035 -8.18508057 14.65436035 -8.75 12.921875 C-9.06710938 11.96120117 -9.38421875 11.00052734 -9.7109375 10.01074219 C-10.39131686 7.31023644 -10.65047505 5.14518658 -10.375 2.375 C-7.36999688 -0.63000312 -4.02160893 0.00668041 0 0 Z M-8.375 2.375 C-8.375 4.685 -8.375 6.995 -8.375 9.375 C-7.715 9.375 -7.055 9.375 -6.375 9.375 C-6.375 11.685 -6.375 13.995 -6.375 16.375 C-5.715 16.705 -5.055 17.035 -4.375 17.375 C-1.95851319 21.33803837 -1.16773244 24.57284891 -0.75390625 29.16015625 C-0.1564562 32.65246734 1.26814378 35.7503897 2.6875 38.98046875 C3.64894478 41.43615896 4.18251799 43.7800274 4.625 46.375 C5.285 46.375 5.945 46.375 6.625 46.375 C6.625 48.025 6.625 49.675 6.625 51.375 C7.285 51.705 7.945 52.035 8.625 52.375 C9.0390625 54.44140625 9.0390625 54.44140625 9.25 56.9375 C9.32476562 57.76378906 9.39953125 58.59007812 9.4765625 59.44140625 C9.55003906 60.39853516 9.55003906 60.39853516 9.625 61.375 C10.285 61.375 10.945 61.375 11.625 61.375 C11.625 64.015 11.625 66.655 11.625 69.375 C12.285 69.375 12.945 69.375 13.625 69.375 C13.625 72.015 13.625 74.655 13.625 77.375 C14.285 77.705 14.945 78.035 15.625 78.375 C16.3416207 80.69347874 17.00742027 83.02819703 17.625 85.375 C18.12 86.365 18.12 86.365 18.625 87.375 C22.70002794 87.44920211 26.77479392 87.5036257 30.8503418 87.53979492 C32.23647919 87.55487397 33.62256894 87.5753405 35.00854492 87.60131836 C37.00158146 87.63773716 38.99496723 87.65313018 40.98828125 87.66796875 C42.18751221 87.6836792 43.38674316 87.69938965 44.62231445 87.71557617 C47.58841661 87.61411135 47.58841661 87.61411135 49.52807617 86.0871582 C51.30625768 83.31164364 50.80588566 80.5706467 50.625 77.375 C51.285 77.375 51.945 77.375 52.625 77.375 C52.955 75.395 53.285 73.415 53.625 71.375 C54.285 71.375 54.945 71.375 55.625 71.375 C56.9012281 67.97172508 57.73854706 64.85397641 58.0625 61.25 C58.625 57.375 58.625 57.375 60.09375 55.484375 C61.97736863 52.88959423 62.24927251 50.90693979 62.6875 47.75 C63.41439158 42.58560842 63.41439158 42.58560842 65.625 40.375 C66.5016567 36.75879113 67.1605559 33.12215999 67.84375 29.46484375 C68.1015625 28.44519531 68.359375 27.42554688 68.625 26.375 C69.615 25.88 69.615 25.88 70.625 25.375 C70.769375 24.364375 70.91375 23.35375 71.0625 22.3125 C71.59074286 18.61479995 72.49122388 15.9207996 74.00390625 12.5625 C74.94365468 9.63168825 74.94365468 9.63168825 74.625 3.375 C69.345 3.375 64.065 3.375 58.625 3.375 C58.625 4.035 58.625 4.695 58.625 5.375 C57.965 5.375 57.305 5.375 56.625 5.375 C56.625 7.685 56.625 9.995 56.625 12.375 C55.635 12.375 54.645 12.375 53.625 12.375 C52.30772247 17.3806546 51.26687918 22.23996656 50.625 27.375 C49.965 27.375 49.305 27.375 48.625 27.375 C46.51924625 32.90260359 45.24648791 37.44497733 45.625 43.375 C44.965 43.375 44.305 43.375 43.625 43.375 C43.5425 44.509375 43.46 45.64375 43.375 46.8125 C42.9706988 50.22794002 42.06405267 52.84950123 40.5625 55.9375 C38.59322163 60.03246152 38.24168073 62.87099853 38.625 67.375 C37.965 67.375 37.305 67.375 36.625 67.375 C36.625 70.015 36.625 72.655 36.625 75.375 C34.645 75.375 32.665 75.375 30.625 75.375 C30.625 72.735 30.625 70.095 30.625 67.375 C29.635 67.375 28.645 67.375 27.625 67.375 C27.625 64.735 27.625 62.095 27.625 59.375 C26.965 59.375 26.305 59.375 25.625 59.375 C25.625 56.405 25.625 53.435 25.625 50.375 C24.965 50.375 24.305 50.375 23.625 50.375 C23.69010417 48.35677083 23.75520833 46.33854167 23.8203125 44.3203125 C23.80831689 42.13636355 23.80831689 42.13636355 21.625 40.375 C19.74595724 35.73265906 19.13604387 31.31509076 18.625 26.375 C17.635 26.045 16.645 25.715 15.625 25.375 C14.625 18.375 14.625 18.375 14.3125 15 C13.43006435 10.34715751 11.66229686 6.64675148 9.625 2.375 C3.685 2.375 -2.255 2.375 -8.375 2.375 Z " fill="#B4C0C6" transform="translate(257.375,206.625)"/>
<path d="M0 0 C1.22589844 -0.01675781 2.45179688 -0.03351563 3.71484375 -0.05078125 C7.4512551 0.35468696 8.57466112 0.54237434 11.0625 3.3125 C11.50492432 6.4188917 11.6911485 9.18211941 11.70703125 12.296875 C11.72643768 13.20900757 11.74584412 14.12114014 11.76583862 15.06091309 C11.82301719 18.06150773 11.85016259 21.06147593 11.875 24.0625 C11.90469349 26.13119449 11.93505418 28.19987951 11.96606445 30.26855469 C12.14274493 44.03562555 12.05880261 57.79807043 11.75 71.5625 C11.73321198 72.40550659 11.71642395 73.24851318 11.6991272 74.11706543 C11.6483526 76.47957923 11.58311113 78.84115453 11.51171875 81.203125 C11.49696503 81.89990356 11.4822113 82.59668213 11.4670105 83.3145752 C11.29380986 88.08119014 11.29380986 88.08119014 9.0625 90.3125 C5.6148835 91.52976778 2.12997657 91.54653634 -1.5 91.625 C-2.63566406 91.66238281 -3.77132812 91.69976562 -4.94140625 91.73828125 C-7.9375 91.3125 -7.9375 91.3125 -9.83984375 89.48046875 C-10.9375 87.3125 -10.9375 87.3125 -10.9375 84.3125 C-11.87851562 84.80621094 -12.81953125 85.29992187 -13.7890625 85.80859375 C-15.0466536 86.45615932 -16.30447864 87.10327071 -17.5625 87.75 C-18.17996094 88.07548828 -18.79742187 88.40097656 -19.43359375 88.73632812 C-28.54877467 93.38986786 -39.85457975 93.70128096 -49.73046875 91.12109375 C-63.16291607 86.19982544 -73.00564837 75.81378104 -78.96484375 63.125 C-83.04633208 52.29118766 -82.50512981 37.59721355 -78.2578125 26.94921875 C-73.2375341 16.92351485 -65.85229177 8.69810948 -55.9375 3.3125 C-55.2775 3.3125 -54.6175 3.3125 -53.9375 3.3125 C-53.9375 4.3025 -53.9375 5.2925 -53.9375 6.3125 C-55.071875 6.76625 -56.20625 7.22 -57.375 7.6875 C-60.98471692 8.88345806 -60.98471692 8.88345806 -61.9375 11.3125 C-62.9275 11.3125 -63.9175 11.3125 -64.9375 11.3125 C-64.9375 11.9725 -64.9375 12.6325 -64.9375 13.3125 C-65.5975 13.3125 -66.2575 13.3125 -66.9375 13.3125 C-66.9375 13.9725 -66.9375 14.6325 -66.9375 15.3125 C-67.5975 15.3125 -68.2575 15.3125 -68.9375 15.3125 C-69.2675 16.6325 -69.5975 17.9525 -69.9375 19.3125 C-70.5975 19.3125 -71.2575 19.3125 -71.9375 19.3125 C-71.9375 20.9625 -71.9375 22.6125 -71.9375 24.3125 C-72.5975 24.3125 -73.2575 24.3125 -73.9375 24.3125 C-73.9375 25.9625 -73.9375 27.6125 -73.9375 29.3125 C-74.5975 29.3125 -75.2575 29.3125 -75.9375 29.3125 C-75.9375 30.6325 -75.9375 31.9525 -75.9375 33.3125 C-76.9275 33.8075 -76.9275 33.8075 -77.9375 34.3125 C-78.2675 41.2425 -78.5975 48.1725 -78.9375 55.3125 C-78.2775 55.3125 -77.6175 55.3125 -76.9375 55.3125 C-75.58310332 58.02129335 -75.87248549 60.32183268 -75.9375 63.3125 C-75.2775 63.3125 -74.6175 63.3125 -73.9375 63.3125 C-73.9375 64.9625 -73.9375 66.6125 -73.9375 68.3125 C-73.2775 68.3125 -72.6175 68.3125 -71.9375 68.3125 C-71.9375 69.6325 -71.9375 70.9525 -71.9375 72.3125 C-70.9475 72.3125 -69.9575 72.3125 -68.9375 72.3125 C-68.5971875 73.4571875 -68.5971875 73.4571875 -68.25 74.625 C-66.66447825 77.87154453 -65.03535421 78.60052794 -61.9375 80.3125 C-61.9375 80.9725 -61.9375 81.6325 -61.9375 82.3125 C-60.2875 82.3125 -58.6375 82.3125 -56.9375 82.3125 C-56.9375 82.9725 -56.9375 83.6325 -56.9375 84.3125 C-55.2875 84.6425 -53.6375 84.9725 -51.9375 85.3125 C-51.9375 85.9725 -51.9375 86.6325 -51.9375 87.3125 C-49.2975 87.3125 -46.6575 87.3125 -43.9375 87.3125 C-43.9375 87.9725 -43.9375 88.6325 -43.9375 89.3125 C-31.15211213 88.86312526 -31.15211213 88.86312526 -18.9375 85.3125 C-16.9375 84.64583333 -14.9375 83.97916667 -12.9375 83.3125 C-12.9375 81.9925 -12.9375 80.6725 -12.9375 79.3125 C-11.28135343 78.93031233 -9.61292976 78.59854898 -7.9375 78.3125 C-6.9375 79.3125 -6.9375 79.3125 -6.9375 87.3125 C-1.6575 87.3125 3.6225 87.3125 9.0625 87.3125 C9.0625 59.9225 9.0625 32.5325 9.0625 4.3125 C3.4525 4.3125 -2.1575 4.3125 -7.9375 4.3125 C-7.9375 6.6225 -7.9375 8.9325 -7.9375 11.3125 C-9.5875 10.9825 -11.2375 10.6525 -12.9375 10.3125 C-12.9375 9.6525 -12.9375 8.9925 -12.9375 8.3125 C-15.5775 7.6525 -18.2175 6.9925 -20.9375 6.3125 C-20.9375 5.3225 -20.9375 4.3325 -20.9375 3.3125 C-17.45079166 4.4219072 -14.16265763 5.57587666 -10.9375 7.3125 C-10.834375 6.52875 -10.73125 5.745 -10.625 4.9375 C-9.18344586 -0.56661579 -4.85793463 0.01529255 0 0 Z " fill="#C5D2D4" transform="translate(449.9375,205.6875)"/>
<path d="M0 0 C1.22847656 -0.02835938 2.45695312 -0.05671875 3.72265625 -0.0859375 C6.9375 0.375 6.9375 0.375 8.61515808 1.90319824 C10.46107488 5.35369794 10.34843093 8.56822129 10.30981445 12.38476562 C10.31346512 13.18847092 10.31711578 13.99217621 10.32087708 14.82023621 C10.32897605 17.47412312 10.31537805 20.12739821 10.30078125 22.78125 C10.30026256 24.62683105 10.30078059 26.47241266 10.30229187 28.31799316 C10.30220218 32.18489841 10.29177845 36.05159506 10.27368164 39.91845703 C10.25099463 44.87511195 10.2504507 49.83146206 10.25719929 54.7881546 C10.26054078 58.59884347 10.25390576 62.40946286 10.24407005 66.22013855 C10.24022089 68.04778174 10.23906867 69.87543267 10.2406559 71.70307922 C10.24102676 74.25728075 10.22840054 76.81109155 10.2121582 79.36523438 C10.21463562 80.12068039 10.21711304 80.8761264 10.21966553 81.65446472 C10.18184857 85.38071217 10.01156331 88.21085478 7.9375 91.375 C5.16640693 91.42892397 2.39636182 91.46863455 -0.375 91.5 C-1.16068359 91.51675781 -1.94636719 91.53351563 -2.75585938 91.55078125 C-3.51318359 91.55722656 -4.27050781 91.56367188 -5.05078125 91.5703125 C-5.74727783 91.58078613 -6.44377441 91.59125977 -7.16137695 91.60205078 C-9.0625 91.375 -9.0625 91.375 -12.0625 89.375 C-13.24057574 85.84077278 -13.21011363 82.64670318 -13.20776367 78.96948242 C-13.21112228 78.21790359 -13.2144809 77.46632477 -13.21794128 76.69197083 C-13.22744778 74.20478669 -13.22939438 71.71766993 -13.23046875 69.23046875 C-13.23368203 67.50035067 -13.23704616 65.77023286 -13.24055481 64.04011536 C-13.24654567 60.41109589 -13.2483948 56.78210024 -13.24780273 53.15307617 C-13.24770123 48.50937532 -13.2613419 43.86582776 -13.27857494 39.2221632 C-13.28971077 35.64731652 -13.29172144 32.07250667 -13.29119301 28.49764442 C-13.29237118 26.78607976 -13.29678381 25.07451409 -13.30452538 23.36296654 C-13.31435526 20.96477001 -13.31143525 18.56690335 -13.30541992 16.16870117 C-13.31103943 15.46562836 -13.31665894 14.76255554 -13.32244873 14.03817749 C-13.29542796 9.7850818 -12.71065581 6.30224681 -11.0625 2.375 C-7.79888979 -0.24497478 -4.05253248 0.04261338 0 0 Z M-11.0625 4.375 C-11.0625 32.095 -11.0625 59.815 -11.0625 88.375 C-1.74529319 89.21870962 -1.74529319 89.21870962 6.9375 87.375 C6.9375 59.985 6.9375 32.595 6.9375 4.375 C0.9975 4.375 -4.9425 4.375 -11.0625 4.375 Z " fill="#AFC7D1" transform="translate(49.0625,205.625)"/>
<path d="M0 0 C1.23492187 -0.04898438 2.46984375 -0.09796875 3.7421875 -0.1484375 C7.125 0.375 7.125 0.375 9.30705261 2.47006226 C11.54935282 6.05308262 11.61496071 8.16972597 11.5949707 12.37744141 C11.5971611 13.0627594 11.5993515 13.74807739 11.60160828 14.4541626 C11.60391287 16.71212628 11.57768435 18.96877319 11.55078125 21.2265625 C11.54585148 22.80731799 11.54255642 24.38807934 11.54081726 25.96884155 C11.53318225 29.28264019 11.51264996 32.59600618 11.48168945 35.90966797 C11.44230985 40.12905602 11.42410832 44.34816202 11.41438007 48.56771278 C11.40432938 52.62069987 11.38451202 56.67362074 11.36328125 60.7265625 C11.3598855 61.48692432 11.35648975 62.24728615 11.3529911 63.03068924 C11.3158773 69.93135139 11.24693845 76.83703079 10.86010742 83.72802734 C10.81585129 84.56393402 10.77159515 85.3998407 10.72599792 86.26107788 C9.90802488 89.13817817 8.69350566 89.92514939 6.125 91.375 C3.48932397 91.61512667 1.12188175 91.70536419 -1.5 91.625 C-2.180625 91.61984375 -2.86125 91.6146875 -3.5625 91.609375 C-8.56441327 91.53029337 -8.56441327 91.53029337 -10.875 90.375 C-12.0804966 86.75851019 -12.03043548 83.44346819 -12.03613281 79.67822266 C-12.04109772 78.89577682 -12.04606262 78.11333099 -12.05117798 77.30717468 C-12.06578728 74.71779502 -12.07259931 72.12847661 -12.078125 69.5390625 C-12.08387718 67.73928831 -12.08963491 65.93951414 -12.09539795 64.13973999 C-12.10590423 60.36529251 -12.11174943 56.5908663 -12.11523438 52.81640625 C-12.12072031 47.98197628 -12.14475199 43.14782778 -12.17320633 38.3134861 C-12.19183697 34.59542012 -12.19703852 30.87742192 -12.19857025 27.1593132 C-12.20159602 25.37713455 -12.209622 23.59495707 -12.22275543 21.81282425 C-12.23982603 19.31852079 -12.23793345 16.82490471 -12.23144531 14.33056641 C-12.2406601 13.5958461 -12.24987488 12.86112579 -12.2593689 12.10414124 C-12.22345403 7.69255574 -11.59629334 4.88167441 -8.875 1.375 C-5.93961547 -0.09269227 -3.26722984 0.08830351 0 0 Z M-8.875 3.375 C-10.64082363 5.14082363 -9.99485561 7.47871999 -9.99942017 9.83016968 C-9.99582489 10.61203644 -9.99222961 11.3939032 -9.98852539 12.19946289 C-9.98867142 13.01890884 -9.98881744 13.8383548 -9.9889679 14.68263245 C-9.98826852 17.40433353 -9.98047501 20.12596705 -9.97265625 22.84765625 C-9.97079216 24.72952741 -9.96936821 26.61139906 -9.96836853 28.49327087 C-9.96454267 33.45648529 -9.95471181 38.41967064 -9.94366455 43.38287354 C-9.9334519 48.44339606 -9.92887122 53.50392327 -9.92382812 58.56445312 C-9.91308959 68.50131694 -9.89549225 78.43815151 -9.875 88.375 C-4.265 88.375 1.345 88.375 7.125 88.375 C7.125 60.325 7.125 32.275 7.125 3.375 C1.845 3.375 -3.435 3.375 -8.875 3.375 Z " fill="#BECCCF" transform="translate(352.875,205.625)"/>
<path d="M0 0 C0.91652344 -0.020625 1.83304688 -0.04125 2.77734375 -0.0625 C14.11292317 -0.12718234 23.38238364 4.50213256 31.796875 12.09765625 C42.76211074 23.91196998 45.4290299 36.01002336 45.1171875 51.55078125 C44.57273093 63.42263738 38.9878863 71.93340778 30.75 80.25 C19.86253066 89.57716322 7.92101655 93.16864933 -6.25 92.25 C-17.38787021 90.59266244 -28.60556518 85.40660436 -35.72265625 76.3828125 C-36.93665154 74.69877446 -38.09844337 72.97733494 -39.25 71.25 C-38.755 70.26 -38.755 70.26 -38.25 69.25 C-37.569375 69.930625 -36.88875 70.61125 -36.1875 71.3125 C-35.73246094 71.76238281 -35.27742187 72.21226562 -34.80859375 72.67578125 C-33.69669013 73.79883178 -32.60780056 74.94486272 -31.53515625 76.10546875 C-27.26654252 80.79728664 -27.26654252 80.79728664 -21.25 82.25 C-21.25 82.91 -21.25 83.57 -21.25 84.25 C-18.28 84.58 -15.31 84.91 -12.25 85.25 C-12.25 85.91 -12.25 86.57 -12.25 87.25 C-10.93 87.25 -9.61 87.25 -8.25 87.25 C-8.25 87.91 -8.25 88.57 -8.25 89.25 C-2.97 89.25 2.31 89.25 7.75 89.25 C7.75 88.59 7.75 87.93 7.75 87.25 C10.39 87.25 13.03 87.25 15.75 87.25 C15.75 86.59 15.75 85.93 15.75 85.25 C16.70712891 84.95996094 16.70712891 84.95996094 17.68359375 84.6640625 C18.50988281 84.40367187 19.33617187 84.14328125 20.1875 83.875 C21.01121094 83.61976563 21.83492187 83.36453125 22.68359375 83.1015625 C24.92798016 82.44117773 24.92798016 82.44117773 25.75 80.25 C26.41 80.25 27.07 80.25 27.75 80.25 C27.75 79.26 27.75 78.27 27.75 77.25 C28.8946875 76.6621875 28.8946875 76.6621875 30.0625 76.0625 C33.41840426 73.79921573 33.91458093 71.94387281 35.07421875 68.1875 C35.75 66.25 35.75 66.25 37.75 63.25 C38.41 63.25 39.07 63.25 39.75 63.25 C39.75 61.27 39.75 59.29 39.75 57.25 C40.74 56.92 41.73 56.59 42.75 56.25 C42.75 49.65 42.75 43.05 42.75 36.25 C41.265 35.755 41.265 35.755 39.75 35.25 C39.75 32.94 39.75 30.63 39.75 28.25 C39.09 28.25 38.43 28.25 37.75 28.25 C37.75 26.27 37.75 24.29 37.75 22.25 C37.09 22.25 36.43 22.25 35.75 22.25 C35.75 21.26 35.75 20.27 35.75 19.25 C34.76 19.25 33.77 19.25 32.75 19.25 C32.1621875 18.2290625 32.1621875 18.2290625 31.5625 17.1875 C28.87957225 12.83930675 24.6543838 8.0162189 19.55859375 6.671875 C18.96175781 6.53265625 18.36492187 6.3934375 17.75 6.25 C17.255 5.26 17.255 5.26 16.75 4.25 C14.42284 3.87599214 12.08882138 3.54235267 9.75 3.25 C9.255 2.755 9.255 2.755 8.75 2.25 C7.41956375 2.1516279 6.08406656 2.11921408 4.75 2.1171875 C3.945625 2.11589844 3.14125 2.11460937 2.3125 2.11328125 C1.466875 2.11714844 0.62125 2.12101563 -0.25 2.125 C-1.095625 2.12113281 -1.94125 2.11726562 -2.8125 2.11328125 C-3.616875 2.11457031 -4.42125 2.11585938 -5.25 2.1171875 C-6.36375 2.11887939 -6.36375 2.11887939 -7.5 2.12060547 C-9.27825811 2.06057784 -9.27825811 2.06057784 -10.25 3.25 C-12.58297433 3.29092937 -14.91705225 3.29241723 -17.25 3.25 C-11.77067982 -0.40288012 -6.40401057 0.03543021 0 0 Z " fill="#CBDADD" transform="translate(205.25,205.75)"/>
<path d="M0 0 C1.11181641 0.00644531 2.22363281 0.01289063 3.36914062 0.01953125 C5.09487305 0.04466797 5.09487305 0.04466797 6.85546875 0.0703125 C8.02529297 0.07933594 9.19511719 0.08835938 10.40039062 0.09765625 C13.28145928 0.12117518 16.16210864 0.15404398 19.04296875 0.1953125 C19.53796875 1.6803125 19.53796875 1.6803125 20.04296875 3.1953125 C21.03296875 3.1953125 22.02296875 3.1953125 23.04296875 3.1953125 C27.23051145 7.494523 30.17353948 12.96885204 33.04296875 18.1953125 C33.70296875 19.1853125 34.36296875 20.1753125 35.04296875 21.1953125 C35.29188366 23.84944005 35.41315674 26.35399093 35.41796875 29.0078125 C35.44246094 29.70712891 35.46695313 30.40644531 35.4921875 31.12695312 C35.52125269 36.30540047 34.24917193 38.9879386 31.04296875 43.1953125 C30.71296875 44.1853125 30.38296875 45.1753125 30.04296875 46.1953125 C29.05296875 46.1953125 28.06296875 46.1953125 27.04296875 46.1953125 C27.04296875 47.1853125 27.04296875 48.1753125 27.04296875 49.1953125 C26.38296875 49.1953125 25.72296875 49.1953125 25.04296875 49.1953125 C25.04296875 49.8553125 25.04296875 50.5153125 25.04296875 51.1953125 C19.59606412 56.1306189 14.14959364 56.9818267 7.04296875 56.8203125 C6.1921875 56.83964844 5.34140625 56.85898437 4.46484375 56.87890625 C-3.48477714 56.8179429 -8.11184838 53.68484751 -13.95703125 48.5703125 C-15.95703125 46.1953125 -15.95703125 46.1953125 -15.95703125 43.1953125 C-16.94703125 43.1953125 -17.93703125 43.1953125 -18.95703125 43.1953125 C-20.24749502 38.65004807 -20.1479697 34.2655098 -20.14453125 29.5703125 C-20.14517578 28.67473633 -20.14582031 27.77916016 -20.14648438 26.85644531 C-20.09744664 20.72895719 -19.54189619 15.13855603 -17.95703125 9.1953125 C-16.63703125 8.8653125 -15.31703125 8.5353125 -13.95703125 8.1953125 C-13.77140625 7.2671875 -13.77140625 7.2671875 -13.58203125 6.3203125 C-12.95703125 4.1953125 -12.95703125 4.1953125 -10.95703125 2.1953125 C-7.19051627 0.33471043 -4.17630743 -0.04283392 0 0 Z M-12.95703125 11.1953125 C-17.793523 18.78427923 -19.74030705 25.39304561 -18.26953125 34.2578125 C-16.48761144 41.86299968 -13.56741155 46.45006047 -7.0859375 50.90234375 C-0.05155478 55.17460188 5.92533003 56.0890433 14.04296875 54.1953125 C22.15059624 50.93722417 27.46005441 45.99601635 31.24609375 38.16015625 C34.27722821 30.68632963 33.17827892 24.19800061 30.3046875 16.84765625 C27.11923924 10.15131146 22.63849863 6.370938 16.04296875 3.1953125 C5.20986701 -0.09212571 -5.20032593 3.08602967 -12.95703125 11.1953125 Z " fill="#B5C7C9" transform="translate(407.95703125,222.8046875)"/>
<path d="M0 0 C-0.58007812 0.31710938 -1.16015625 0.63421875 -1.7578125 0.9609375 C-8.15263578 4.78094745 -12.56204664 8.82413728 -15 16 C-15.95057293 23.39825755 -16.49561711 31.75458784 -12.40234375 38.32421875 C-7.53478665 44.1408817 -2.47196479 48.54051497 5.26953125 49.3359375 C13.55566509 49.42729509 19.44349212 49.11858264 25.70703125 43.45703125 C30.97387721 37.85700282 33.12171289 32.14082779 33.375 24.5 C32.99374497 13.44360411 27.58984955 7.52043019 20 0 C23.28754511 0.57889381 24.93672495 1.54828411 27.25 3.9375 C28.03117187 4.72447266 28.03117187 4.72447266 28.828125 5.52734375 C30 7 30 7 30 9 C30.99 9 31.98 9 33 9 C33 10.65 33 12.3 33 14 C33.99 14 34.98 14 36 14 C36.08720919 17.58317958 36.14046112 21.16608567 36.1875 24.75 C36.21263672 25.76578125 36.23777344 26.7815625 36.26367188 27.828125 C36.27333984 28.8078125 36.28300781 29.7875 36.29296875 30.796875 C36.3086792 31.69760742 36.32438965 32.59833984 36.34057617 33.52636719 C35.93305636 36.48621721 35.05379533 37.85913449 33 40 C32.34 40 31.68 40 31 40 C31 41.32 31 42.64 31 44 C29.609375 45.6328125 29.609375 45.6328125 27.75 47.125 C27.14671875 47.62257813 26.5434375 48.12015625 25.921875 48.6328125 C22.14092017 51.32251614 19.46959314 52.24964643 14.796875 52.1953125 C13.32734375 52.18564453 13.32734375 52.18564453 11.828125 52.17578125 C10.30445313 52.15064453 10.30445313 52.15064453 8.75 52.125 C7.71875 52.11597656 6.6875 52.10695313 5.625 52.09765625 C3.08309713 52.07412011 0.5416672 52.04124023 -2 52 C-2 51.01 -2 50.02 -2 49 C-2.66 48.95875 -3.32 48.9175 -4 48.875 C-8.2893054 47.62395259 -11.92445543 45.25870355 -15 42 C-15 40.68 -15 39.36 -15 38 C-15.99 37.67 -16.98 37.34 -18 37 C-20.34456931 31.20027591 -21.61304821 23.9337072 -19.171875 17.98046875 C-18.17944322 16.28074418 -17.09178533 14.637678 -16 13 C-15.690625 12.154375 -15.38125 11.30875 -15.0625 10.4375 C-13.04126554 5.80055035 -10.1467891 2.71100924 -5.875 0.0625 C-3 -1 -3 -1 0 0 Z " fill="#AEBFC1" transform="translate(196,227)"/>
<path d="M0 0 C1.32 0.33 2.64 0.66 4 1 C3.67 28.06 3.34 55.12 3 83 C7.29 83 11.58 83 16 83 C16 83.33 16 83.66 16 84 C10.72 84 5.44 84 0 84 C0 56.28 0 28.56 0 0 Z " fill="#DCF6F9" transform="translate(38,210)"/>
<path d="M0 0 C1.87109375 1.0703125 1.87109375 1.0703125 2.87109375 3.0703125 C0.72380234 2.78958177 -1.42173818 2.49542751 -3.56640625 2.1953125 C-4.76136719 2.03289062 -5.95632812 1.87046875 -7.1875 1.703125 C-8.15816406 1.49429688 -9.12882812 1.28546875 -10.12890625 1.0703125 C-10.62390625 0.0803125 -10.62390625 0.0803125 -11.12890625 -0.9296875 C-13.37864072 -0.9838255 -15.62875008 -1.02254241 -17.87890625 -1.0546875 C-19.75835937 -1.08949219 -19.75835937 -1.08949219 -21.67578125 -1.125 C-24.93241487 -0.94080127 -26.39245743 -0.52180318 -29.12890625 1.0703125 C-31.87890625 1.1953125 -31.87890625 1.1953125 -34.12890625 1.0703125 C-34.12890625 1.7303125 -34.12890625 2.3903125 -34.12890625 3.0703125 C-35.07765625 3.4828125 -36.02640625 3.8953125 -37.00390625 4.3203125 C-40.13607249 6.0743256 -40.99391231 6.77883007 -42.12890625 10.0703125 C-43.77890625 10.0703125 -45.42890625 10.0703125 -47.12890625 10.0703125 C-47.12890625 7.1003125 -47.12890625 4.1303125 -47.12890625 1.0703125 C-52.40890625 1.0703125 -57.68890625 1.0703125 -63.12890625 1.0703125 C-63.12890625 28.7903125 -63.12890625 56.5103125 -63.12890625 85.0703125 C-63.45890625 85.0703125 -63.78890625 85.0703125 -64.12890625 85.0703125 C-64.12890625 57.0203125 -64.12890625 28.9703125 -64.12890625 0.0703125 C-54.22890625 -0.4246875 -54.22890625 -0.4246875 -44.12890625 -0.9296875 C-43.46890625 0.7203125 -42.80890625 2.3703125 -42.12890625 4.0703125 C-40.88173828 3.43802734 -40.88173828 3.43802734 -39.609375 2.79296875 C-38.52269531 2.24511719 -37.43601562 1.69726562 -36.31640625 1.1328125 C-35.23746094 0.58753906 -34.15851563 0.04226562 -33.046875 -0.51953125 C-23.21747504 -5.26974997 -9.89846101 -4.06786069 0 0 Z " fill="#C4DADC" transform="translate(134.12890625,208.9296875)"/>
<path d="M0 0 C1.23492187 -0.04898438 2.46984375 -0.09796875 3.7421875 -0.1484375 C7.125 0.375 7.125 0.375 9.31884766 2.4934082 C11.52110446 6.00695742 11.55452442 7.88672484 11.40625 12.00390625 C11.38912964 12.64944962 11.37200928 13.29499298 11.35437012 13.96009827 C11.31527426 15.36081523 11.26712649 16.76130254 11.2109375 18.16143799 C11.12285247 20.43031566 11.06528875 22.69823436 11.015625 24.96826172 C10.90835906 29.75043176 10.76844083 34.53129934 10.625 39.3125 C10.57662516 40.97850989 10.52844703 42.64452551 10.48046875 44.31054688 C10.36423725 48.33210057 10.24537722 52.35356835 10.125 56.375 C9.795 56.375 9.465 56.375 9.125 56.375 C9.09994385 55.43930176 9.0748877 54.50360352 9.04907227 53.53955078 C8.38567453 28.94486648 8.38567453 28.94486648 7.125 4.375 C1.845 4.375 -3.435 4.375 -8.875 4.375 C-9.87629717 8.38018869 -10.04784699 11.99402891 -10.08032227 16.08105469 C-10.09022186 16.85217087 -10.10012146 17.62328705 -10.11032104 18.41777039 C-10.14185078 20.96077427 -10.16665968 23.50379682 -10.19140625 26.046875 C-10.21198314 27.81236246 -10.23297981 29.57784507 -10.25437927 31.34332275 C-10.30952399 35.98586091 -10.35896675 40.62844298 -10.40722656 45.27105713 C-10.45749711 50.01017149 -10.51315417 54.74922225 -10.56835938 59.48828125 C-10.67584798 68.7837998 -10.77731356 78.07937363 -10.875 87.375 C-11.205 87.375 -11.535 87.375 -11.875 87.375 C-11.94452543 76.90030801 -11.99782425 66.42567096 -12.03043652 55.95079517 C-12.04608917 51.08682413 -12.0673202 46.22301101 -12.10131836 41.35913086 C-12.13392598 36.66478105 -12.15185603 31.9705831 -12.15963173 27.27612877 C-12.16517271 25.48556821 -12.17599291 23.69501591 -12.19219017 21.90452003 C-12.21398321 19.39555557 -12.21696616 16.88721779 -12.21557617 14.37817383 C-12.226362 13.63874039 -12.23714783 12.89930695 -12.2482605 12.13746643 C-12.22174494 7.71121321 -11.60976803 4.89178455 -8.875 1.375 C-5.93961547 -0.09269227 -3.26722984 0.08830351 0 0 Z " fill="#A7B6BE" transform="translate(352.875,205.625)"/>
<path d="M0 0 C0.66 0.33 1.32 0.66 2 1 C0.39598746 4.20802508 -2.80337227 4.63001669 -6 6 C-6.33 6.66 -6.66 7.32 -7 8 C-7.721875 8.391875 -8.44375 8.78375 -9.1875 9.1875 C-13.69758853 12.0940015 -17.32378626 15.72985387 -18.875 20.9375 C-18.91625 21.618125 -18.9575 22.29875 -19 23 C-19.66 23 -20.32 23 -21 23 C-20.938125 24.5159375 -20.938125 24.5159375 -20.875 26.0625 C-21 30 -21 30 -21.96875 33.09375 C-23.38608506 37.80792966 -23.45595155 42.54566038 -23.625 47.4375 C-23.66367188 48.35982422 -23.70234375 49.28214844 -23.7421875 50.23242188 C-23.83568676 52.48809143 -23.9214391 54.74376916 -24 57 C-23.34 57 -22.68 57 -22 57 C-21.34 59.97 -20.68 62.94 -20 66 C-22.64391635 63.35608365 -23.45135119 62.45695026 -24.625 59.1875 C-24.86476562 58.54167969 -25.10453125 57.89585937 -25.3515625 57.23046875 C-28.77834108 45.44317615 -28.21892222 32.03448496 -22.48828125 21.12109375 C-16.84541577 11.80085525 -10.06570795 4.56361165 0 0 Z " fill="#C3D1D3" transform="translate(186,209)"/>
<path d="M0 0 C1.11181641 0.00644531 2.22363281 0.01289063 3.36914062 0.01953125 C5.09487305 0.04466797 5.09487305 0.04466797 6.85546875 0.0703125 C8.02529297 0.07933594 9.19511719 0.08835938 10.40039062 0.09765625 C13.28145928 0.12117518 16.16210864 0.15404398 19.04296875 0.1953125 C19.53796875 1.6803125 19.53796875 1.6803125 20.04296875 3.1953125 C21.03296875 3.1953125 22.02296875 3.1953125 23.04296875 3.1953125 C23.70296875 4.5153125 24.36296875 5.8353125 25.04296875 7.1953125 C21.91492562 6.70655576 19.24431306 5.87507415 16.35546875 4.6328125 C9.83809173 2.15816935 3.65927562 2.24350496 -2.76953125 4.9453125 C-6.20712511 6.64288971 -8.99685581 8.75752096 -11.95703125 11.1953125 C-12.94703125 11.1953125 -13.93703125 11.1953125 -14.95703125 11.1953125 C-15.28703125 12.1853125 -15.61703125 13.1753125 -15.95703125 14.1953125 C-16.61703125 14.1953125 -17.27703125 14.1953125 -17.95703125 14.1953125 C-18.28703125 15.5153125 -18.61703125 16.8353125 -18.95703125 18.1953125 C-18.62703125 15.2253125 -18.29703125 12.2553125 -17.95703125 9.1953125 C-16.63703125 8.8653125 -15.31703125 8.5353125 -13.95703125 8.1953125 C-13.77140625 7.2671875 -13.77140625 7.2671875 -13.58203125 6.3203125 C-12.95703125 4.1953125 -12.95703125 4.1953125 -10.95703125 2.1953125 C-7.19051627 0.33471043 -4.17630743 -0.04283392 0 0 Z " fill="#E5F4F5" transform="translate(407.95703125,222.8046875)"/>
<path d="M0 0 C1.28080392 3.84241177 0.30805584 5.22117203 -1 9 C-1.37531446 11.32694964 -1.71917202 13.65976685 -2 16 C-2.66 16 -3.32 16 -4 16 C-3.9175 17.134375 -3.835 18.26875 -3.75 19.4375 C-3.72658174 23.85574552 -5.12073708 26.90011328 -7.04296875 30.8125 C-8.38877291 33.88862379 -8.71656515 36.66964054 -9 40 C-9.66 40 -10.32 40 -11 40 C-11 42.64 -11 45.28 -11 48 C-12.98 48 -14.96 48 -17 48 C-17 45.36 -17 42.72 -17 40 C-17.99 40 -18.98 40 -20 40 C-20 37.36 -20 34.72 -20 32 C-20.66 32 -21.32 32 -22 32 C-22 30.02 -22 28.04 -22 26 C-20 29 -20 29 -20 31 C-19.34 31 -18.68 31 -18 31 C-17.01 34.63 -16.02 38.26 -15 42 C-14.34 42 -13.68 42 -13 42 C-12.83709473 41.38068604 -12.67418945 40.76137207 -12.50634766 40.12329102 C-10.50927312 32.65635304 -8.28396735 25.26793267 -5.98339844 17.88989258 C-5.36638723 15.90986102 -4.75334275 13.92862949 -4.140625 11.94726562 C-1.12800808 2.25601616 -1.12800808 2.25601616 0 0 Z " fill="#ADBEC2" transform="translate(305,234)"/>
<path d="M0 0 C0 0.99 0 1.98 0 3 C-1.134375 3.45375 -2.26875 3.9075 -3.4375 4.375 C-7.04721692 5.57095806 -7.04721692 5.57095806 -8 8 C-8.99 8 -9.98 8 -11 8 C-11 8.66 -11 9.32 -11 10 C-11.66 10 -12.32 10 -13 10 C-13 10.66 -13 11.32 -13 12 C-13.66 12 -14.32 12 -15 12 C-15.33 13.32 -15.66 14.64 -16 16 C-16.66 16 -17.32 16 -18 16 C-18 17.65 -18 19.3 -18 21 C-18.66 21 -19.32 21 -20 21 C-20 22.65 -20 24.3 -20 26 C-20.66 26 -21.32 26 -22 26 C-22 27.32 -22 28.64 -22 30 C-22.66 30.33 -23.32 30.66 -24 31 C-24.33 38.92 -24.66 46.84 -25 55 C-24.34 55 -23.68 55 -23 55 C-23 57.31 -23 59.62 -23 62 C-29.00163551 52.99754674 -28.23889479 39.7508638 -26.34765625 29.4453125 C-23.35723979 19.56282032 -12.1426684 0 0 0 Z " fill="#B9C6CA" transform="translate(396,209)"/>
<path d="M0 0 C0.33 0 0.66 0 1 0 C1.02312851 7.54498233 1.04091769 15.08996101 1.05181217 22.63497066 C1.05703989 26.13808885 1.0641355 29.64118285 1.07543945 33.14428711 C1.08834206 37.16780841 1.09322912 41.19130414 1.09765625 45.21484375 C1.10281754 46.47836166 1.10797882 47.74187958 1.11329651 49.04368591 C1.11340981 50.78537804 1.11340981 50.78537804 1.11352539 52.56225586 C1.115746 53.59039902 1.11796661 54.61854218 1.12025452 55.67784119 C1 58 1 58 0 59 C-2.6773138 59.09981214 -5.32304175 59.13879875 -8 59.125 C-9.12535156 59.13080078 -9.12535156 59.13080078 -10.2734375 59.13671875 C-15.87338947 59.12661053 -15.87338947 59.12661053 -17 58 C-17.11739951 56.46183943 -17.1672654 54.91845129 -17.18945312 53.37597656 C-17.20617065 52.39115295 -17.22288818 51.40632935 -17.2401123 50.3916626 C-17.25368774 49.31882019 -17.26726318 48.24597778 -17.28125 47.140625 C-17.29965942 46.04409607 -17.31806885 44.94756714 -17.33703613 43.81781006 C-17.39599665 40.29526317 -17.44868973 36.77266614 -17.5 33.25 C-17.5676977 28.63010673 -17.64145975 24.01036654 -17.71875 19.390625 C-17.73232544 18.32587952 -17.74590088 17.26113403 -17.7598877 16.16412354 C-17.77660522 15.16669128 -17.79332275 14.16925903 -17.81054688 13.14160156 C-17.82307495 12.2674762 -17.83560303 11.39335083 -17.84851074 10.49273682 C-18.00498772 7.91792764 -18.43657654 5.5145537 -19 3 C-17.515 3.99 -17.515 3.99 -16 5 C-15.63923645 7.21463013 -15.63923645 7.21463013 -15.65942383 10.00048828 C-15.65965042 11.04141632 -15.65987701 12.08234436 -15.66011047 13.15481567 C-15.67559433 14.28192963 -15.69107819 15.40904358 -15.70703125 16.5703125 C-15.71127609 17.72167694 -15.71552094 18.87304138 -15.71989441 20.05929565 C-15.73672948 23.74809855 -15.77439126 27.43636136 -15.8125 31.125 C-15.82754056 33.62108588 -15.84123005 36.11718029 -15.85351562 38.61328125 C-15.88664893 44.74239659 -15.93846493 50.87110664 -16 57 C-10.72 57 -5.44 57 0 57 C0 38.19 0 19.38 0 0 Z " fill="#CCDBDC" transform="translate(151,236)"/>
<path d="M0 0 C0.91652344 -0.020625 1.83304688 -0.04125 2.77734375 -0.0625 C14.11292317 -0.12718234 23.38238364 4.50213256 31.796875 12.09765625 C38.52336027 19.34499768 45.05822574 29.66379586 44.9453125 39.76953125 C44.93886719 40.79111328 44.93242187 41.81269531 44.92578125 42.86523438 C44.90902344 43.92033203 44.89226562 44.97542969 44.875 46.0625 C44.86597656 47.13693359 44.85695312 48.21136719 44.84765625 49.31835938 C44.82415306 51.96246854 44.79129575 54.60611872 44.75 57.25 C44.42 57.25 44.09 57.25 43.75 57.25 C43.255 44.875 43.255 44.875 42.75 32.25 C42.09 32.25 41.43 32.25 40.75 32.25 C40.75 30.6 40.75 28.95 40.75 27.25 C39.76 26.92 38.77 26.59 37.75 26.25 C37.75 24.93 37.75 23.61 37.75 22.25 C37.09 22.25 36.43 22.25 35.75 22.25 C35.75 21.26 35.75 20.27 35.75 19.25 C34.76 19.25 33.77 19.25 32.75 19.25 C32.1621875 18.2290625 32.1621875 18.2290625 31.5625 17.1875 C28.87957225 12.83930675 24.6543838 8.0162189 19.55859375 6.671875 C18.96175781 6.53265625 18.36492187 6.3934375 17.75 6.25 C17.255 5.26 17.255 5.26 16.75 4.25 C14.42284 3.87599214 12.08882138 3.54235267 9.75 3.25 C9.42 2.92 9.09 2.59 8.75 2.25 C7.41956375 2.1516279 6.08406656 2.11921408 4.75 2.1171875 C3.945625 2.11589844 3.14125 2.11460937 2.3125 2.11328125 C1.466875 2.11714844 0.62125 2.12101563 -0.25 2.125 C-1.095625 2.12113281 -1.94125 2.11726562 -2.8125 2.11328125 C-3.616875 2.11457031 -4.42125 2.11585938 -5.25 2.1171875 C-6.36375 2.11887939 -6.36375 2.11887939 -7.5 2.12060547 C-9.27825811 2.06057784 -9.27825811 2.06057784 -10.25 3.25 C-12.58297433 3.29092937 -14.91705225 3.29241723 -17.25 3.25 C-11.77067982 -0.40288012 -6.40401057 0.03543021 0 0 Z " fill="#BEC5CA" transform="translate(205.25,205.75)"/>
<path d="M0 0 C5.15080101 1.90770408 7.90989073 6.18664516 10.625 10.703125 C12.22931268 14.54982927 12.4798703 17.90163601 12.4375 22 C12.4674707 23.02867187 12.4674707 23.02867187 12.49804688 24.078125 C12.493133 29.22786792 11.05986788 31.95932994 8 36 C7.67 36.99 7.34 37.98 7 39 C6.01 39 5.02 39 4 39 C4 39.99 4 40.98 4 42 C3.34 42 2.68 42 2 42 C2 42.66 2 43.32 2 44 C-3.54891215 46.81849506 -7.741346 48.5326514 -14 48 C-14 47.67 -14 47.34 -14 47 C-13.41992188 46.82984375 -12.83984375 46.6596875 -12.2421875 46.484375 C-7.16907347 44.91053764 -3.32226999 43.05721536 1 40 C1.66 40 2.32 40 3 40 C7.05591694 32.19875435 10.71823243 24.17461067 8.26953125 15.375 C6.30715805 9.47987072 3.87518294 4.84397867 0 0 Z " fill="#ACC4CB" transform="translate(431,230)"/>
<path d="M0 0 C0.66 0 1.32 0 2 0 C3.35439668 2.70879335 3.06501451 5.00933268 3 8 C3.66 8 4.32 8 5 8 C5 9.65 5 11.3 5 13 C5.66 13 6.32 13 7 13 C7 14.32 7 15.64 7 17 C7.99 17 8.98 17 10 17 C10.226875 17.763125 10.45375 18.52625 10.6875 19.3125 C12.27302175 22.55904453 13.90214579 23.28802794 17 25 C17 25.66 17 26.32 17 27 C18.65 27 20.3 27 22 27 C22 27.66 22 28.32 22 29 C23.65 29.33 25.3 29.66 27 30 C27 30.66 27 31.32 27 32 C29.64 32 32.28 32 35 32 C35 32.66 35 33.32 35 34 C40.94 33.67 46.88 33.34 53 33 C52.505 33.99 52.505 33.99 52 35 C48.85418577 35.02888514 45.70840531 35.04675923 42.5625 35.0625 C41.66466797 35.07087891 40.76683594 35.07925781 39.84179688 35.08789062 C38.56079102 35.09272461 38.56079102 35.09272461 37.25390625 35.09765625 C36.46314697 35.10289307 35.6723877 35.10812988 34.85766602 35.11352539 C33 35 33 35 32 34 C30.72125 33.979375 29.4425 33.95875 28.125 33.9375 C19.81040834 33.09015308 13.39034929 26.79419563 8 20.8125 C6.98357472 19.55476512 5.9809594 18.28558781 5 17 C4.360625 16.195625 3.72125 15.39125 3.0625 14.5625 C1.47947351 10.74461259 1.76016762 7.0771504 2 3 C1.34 3 0.68 3 0 3 C0 2.01 0 1.02 0 0 Z " fill="#C2CDD1" transform="translate(371,261)"/>
<path d="M0 0 C1.4375 1 1.4375 1 3 3 C3.23212665 4.89017417 3.45614062 6.78213511 3.6171875 8.6796875 C4.20378413 12.23518138 5.67749038 15.33938272 7.16015625 18.60546875 C8.07573492 21.21593257 8.15118807 23.25422952 8 26 C8.66 26 9.32 26 10 26 C10 27.65 10 29.3 10 31 C10.99 31.33 11.98 31.66 13 32 C13 34.97 13 37.94 13 41 C13.66 41 14.32 41 15 41 C15 43.31 15 45.62 15 48 C14.67 48 14.34 48 14 48 C14 46.02 14 44.04 14 42 C13.01 42 12.02 42 11 42 C9.70086598 38.18283407 8.41997282 34.36004955 7.15478516 30.53149414 C6.7230836 29.2333312 6.28666279 27.93672677 5.84521484 26.6418457 C3.31988974 19.22334531 1.38385249 12.86443836 2 5 C1.34 5 0.68 5 0 5 C0 3.35 0 1.7 0 0 Z " fill="#BDC8CD" transform="translate(254,227)"/>
<path d="M0 0 C0.33 0 0.66 0 1 0 C1.05395478 1.62463842 1.09277195 3.24978541 1.125 4.875 C1.14820313 5.77992188 1.17140625 6.68484375 1.1953125 7.6171875 C1 10 1 10 -1 12 C-1.2475 12.845625 -1.495 13.69125 -1.75 14.5625 C-3.44443736 19.22220274 -6.15207211 22.96991336 -9 27 C-10.423125 26.690625 -10.423125 26.690625 -11.875 26.375 C-13.421875 26.189375 -13.421875 26.189375 -15 26 C-15.66 26.66 -16.32 27.32 -17 28 C-19.15478516 28.22705078 -19.15478516 28.22705078 -21.7890625 28.1953125 C-22.73007812 28.18886719 -23.67109375 28.18242187 -24.640625 28.17578125 C-25.62546875 28.15902344 -26.6103125 28.14226562 -27.625 28.125 C-28.61757813 28.11597656 -29.61015625 28.10695313 -30.6328125 28.09765625 C-33.08878134 28.07404116 -35.54427168 28.04110799 -38 28 C-38 27.67 -38 27.34 -38 27 C-37.42556152 26.9906543 -36.85112305 26.98130859 -36.25927734 26.97167969 C-33.63034696 26.91764969 -31.00313433 26.83407106 -28.375 26.75 C-27.47136719 26.73582031 -26.56773437 26.72164063 -25.63671875 26.70703125 C-19.75571735 26.49239616 -16.61965313 25.64325957 -12 22 C-11.34 22 -10.68 22 -10 22 C-10 21.34 -10 20.68 -10 20 C-9.34 20 -8.68 20 -8 20 C-8 19.01 -8 18.02 -8 17 C-7.01 17 -6.02 17 -5 17 C-4.896875 16.443125 -4.79375 15.88625 -4.6875 15.3125 C-4 13 -4 13 -2.5 10.75 C-0.51156776 7.1045409 -0.34945924 4.123619 0 0 Z " fill="#D9F0F0" transform="translate(443,252)"/>
<path d="M0 0 C1.24910156 -0.00515625 2.49820312 -0.0103125 3.78515625 -0.015625 C6.9375 0.25 6.9375 0.25 8.9375 2.25 C5.9759304 3.7307848 3.10243705 3.60314037 -0.1875 3.8125 C-1.46882813 3.89628906 -2.75015625 3.98007813 -4.0703125 4.06640625 C-5.05773437 4.12699219 -6.04515625 4.18757812 -7.0625 4.25 C-7.3925 6.56 -7.7225 8.87 -8.0625 11.25 C-9.7125 10.92 -11.3625 10.59 -13.0625 10.25 C-13.0625 9.59 -13.0625 8.93 -13.0625 8.25 C-15.7025 7.59 -18.3425 6.93 -21.0625 6.25 C-21.0625 5.26 -21.0625 4.27 -21.0625 3.25 C-17.57579166 4.3594072 -14.28765763 5.51337666 -11.0625 7.25 C-10.959375 6.46625 -10.85625 5.6825 -10.75 4.875 C-9.29166506 -0.69318794 -4.89297873 -0.02023983 0 0 Z " fill="#B0C2C9" transform="translate(450.0625,205.75)"/>
<path d="M0 0 C0.79075928 0.00016113 1.58151855 0.00032227 2.39624023 0.00048828 C8.81000709 0.12482414 14.66307992 1.14339018 20.3125 4.375 C20.8075 5.365 20.8075 5.365 21.3125 6.375 C19.16520859 6.09426927 17.01966807 5.80011501 14.875 5.5 C13.68003906 5.33757812 12.48507813 5.17515625 11.25390625 5.0078125 C10.28324219 4.79898438 9.31257813 4.59015625 8.3125 4.375 C7.8175 3.385 7.8175 3.385 7.3125 2.375 C5.06276553 2.320862 2.81265617 2.28214509 0.5625 2.25 C-1.31695312 2.21519531 -1.31695312 2.21519531 -3.234375 2.1796875 C-6.49100862 2.36388623 -7.95105118 2.78288432 -10.6875 4.375 C-13.4375 4.5 -13.4375 4.5 -15.6875 4.375 C-15.6875 5.035 -15.6875 5.695 -15.6875 6.375 C-19.54250277 8.67317473 -22.29987247 10.27809312 -26.6875 11.375 C-26.6875 8.405 -26.6875 5.435 -26.6875 2.375 C-25.6975 3.86 -25.6975 3.86 -24.6875 5.375 C-24.0275 6.035 -23.3675 6.695 -22.6875 7.375 C-22.17960937 7.03726563 -21.67171875 6.69953125 -21.1484375 6.3515625 C-20.46007812 5.90554687 -19.77171875 5.45953125 -19.0625 5 C-18.38960937 4.55914062 -17.71671875 4.11828125 -17.0234375 3.6640625 C-11.40693804 0.56465644 -6.28069118 -0.01191656 0 0 Z " fill="#BFCCD1" transform="translate(115.6875,205.625)"/>
<path d="M0 0 C3.28754511 0.57889381 4.93672495 1.54828411 7.25 3.9375 C7.77078125 4.46214844 8.2915625 4.98679688 8.828125 5.52734375 C10 7 10 7 10 9 C10.99 9 11.98 9 13 9 C13 10.65 13 12.3 13 14 C13.99 14 14.98 14 16 14 C16.08720919 17.58317958 16.14046112 21.16608567 16.1875 24.75 C16.21263672 25.76578125 16.23777344 26.7815625 16.26367188 27.828125 C16.27333984 28.8078125 16.28300781 29.7875 16.29296875 30.796875 C16.3086792 31.69760742 16.32438965 32.59833984 16.34057617 33.52636719 C15.93761772 36.45308763 14.9344597 37.81341349 13 40 C12.34 39.67 11.68 39.34 11 39 C11.32355469 38.49984375 11.64710938 37.9996875 11.98046875 37.484375 C14.55173655 31.21875691 13.99801134 20.85960289 11.9375 14.5 C9.29047045 8.78798887 4.41198332 4.37162981 0 0 Z " fill="#B5C6CB" transform="translate(216,227)"/>
<path d="M0 0 C0.99 0.33 1.98 0.66 3 1 C3 2.65 3 4.3 3 6 C3.66 6 4.32 6 5 6 C8.10319988 15.30959963 7.73208297 28.6057714 3.59179688 37.4987793 C-0.19111305 44.59555652 -0.19111305 44.59555652 -3 46 C-3.25532751 42.93606987 -3.21861333 41.36766788 -1.625 38.6875 C-1.08875 38.130625 -0.5525 37.57375 0 37 C0.66 37 1.32 37 2 37 C2 35.02 2 33.04 2 31 C2.99 30.67 3.98 30.34 5 30 C5 23.4 5 16.8 5 10 C4.01 9.67 3.02 9.34 2 9 C2 6.69 2 4.38 2 2 C1.34 2 0.68 2 0 2 C0 1.34 0 0.68 0 0 Z " fill="#D7D6D2" transform="translate(243,232)"/>
<path d="M0 0 C0.804375 -0.00128906 1.60875 -0.00257813 2.4375 -0.00390625 C3.283125 -0.00003906 4.12875 0.00382813 5 0.0078125 C6.2684375 0.00201172 6.2684375 0.00201172 7.5625 -0.00390625 C8.366875 -0.00261719 9.17125 -0.00132812 10 0 C10.7425 0.00112793 11.485 0.00225586 12.25 0.00341797 C14 0.1328125 14 0.1328125 15 1.1328125 C17.32817964 1.50041981 19.6618385 1.83522831 22 2.1328125 C22.495 3.6178125 22.495 3.6178125 23 5.1328125 C25.475 5.6278125 25.475 5.6278125 28 6.1328125 C25.3333581 7.46613345 23.83319697 6.80383283 21 6.1328125 C21 5.1428125 21 4.1528125 21 3.1328125 C18.36 3.1328125 15.72 3.1328125 13 3.1328125 C13 2.4728125 13 1.8128125 13 1.1328125 C5.298566 1.35191446 -1.19029392 1.70505346 -8.08984375 5.27734375 C-10.76315706 6.4745945 -13.12236577 6.42795447 -16 6.1328125 C-16 6.7928125 -16 7.4528125 -16 8.1328125 C-17.32 7.8028125 -18.64 7.4728125 -20 7.1328125 C-17 5.1328125 -17 5.1328125 -13 5.1328125 C-12.67 4.1428125 -12.34 3.1528125 -12 2.1328125 C-10.2984375 1.91625 -10.2984375 1.91625 -8.5625 1.6953125 C-5.04631771 1.14012582 -3.55524421 0.00540076 0 0 Z " fill="#D8E8EA" transform="translate(200,206.8671875)"/>
<path d="M0 0 C0.79277344 0.06123047 1.58554687 0.12246094 2.40234375 0.18554688 C4.35275869 0.33829021 6.30159555 0.51095244 8.25 0.6875 C8.25 2.9975 8.25 5.3075 8.25 7.6875 C7.92 7.6875 7.59 7.6875 7.25 7.6875 C7.25 5.7075 7.25 3.7275 7.25 1.6875 C1.97 1.6875 -3.31 1.6875 -8.75 1.6875 C-8.75 2.3475 -8.75 3.0075 -8.75 3.6875 C-9.41 3.6875 -10.07 3.6875 -10.75 3.6875 C-10.75 5.9975 -10.75 8.3075 -10.75 10.6875 C-11.74 10.6875 -12.73 10.6875 -13.75 10.6875 C-13.688125 11.491875 -13.62625 12.29625 -13.5625 13.125 C-13.80139407 17.66398733 -15.17043264 21.45651601 -16.75 25.6875 C-17.41 25.6875 -18.07 25.6875 -18.75 25.6875 C-17.61228058 20.18852281 -16.30583053 14.7428962 -14.875 9.3125 C-14.56820313 8.12914062 -14.26140625 6.94578125 -13.9453125 5.7265625 C-11.16578776 -1.34033372 -6.65650802 -0.62370266 0 0 Z " fill="#BBD0D2" transform="translate(324.75,208.3125)"/>
<path d="M0 0 C0.33 0.99 0.66 1.98 1 3 C0.67 3.66 0.34 4.32 0 5 C-0.30791869 7.33077343 -0.50895274 9.66241896 -0.71875 12.00390625 C-1 14 -1 14 -2 15 C-2.09879565 16.810285 -2.12971514 18.62452727 -2.125 20.4375 C-2.12757813 21.42621094 -2.13015625 22.41492188 -2.1328125 23.43359375 C-2.17228415 25.98909076 -2.17228415 25.98909076 -1 28 C-0.95977609 30.3329866 -0.95679753 32.66706666 -1 35 C-0.34 35 0.32 35 1 35 C1.66 37.97 2.32 40.94 3 44 C0.35608365 41.35608365 -0.45135119 40.45695026 -1.625 37.1875 C-1.86476562 36.54167969 -2.10453125 35.89585937 -2.3515625 35.23046875 C-5.62651168 23.96543273 -5.29974978 10.59949955 0 0 Z " fill="#B4B9C1" transform="translate(163,231)"/>
<path d="M0 0 C-0.58007812 0.31710938 -1.16015625 0.63421875 -1.7578125 0.9609375 C-8.172041 4.79253934 -12.33214092 8.92729446 -15 16 C-15.72038053 20.34629584 -15.98619977 24.59772683 -16 29 C-16.66 28.67 -17.32 28.34 -18 28 C-18.62106553 18.7702762 -17.26673213 12.05601935 -11.625 4.625 C-8.03854864 1.03854864 -5.08601893 -1.69533964 0 0 Z " fill="#A6AAB4" transform="translate(196,227)"/>
<path d="M0 0 C2 3 2 3 2 5 C2.66 5 3.32 5 4 5 C5.21568385 8.3228692 6.03808466 11.29039554 6.5 14.8125 C6.665 15.864375 6.83 16.91625 7 18 C7.66 18.33 8.32 18.66 9 19 C9.66 17.68 10.32 16.36 11 15 C11 17.31 11 19.62 11 22 C9.02 22 7.04 22 5 22 C5 19.36 5 16.72 5 14 C4.01 14 3.02 14 2 14 C2 11.36 2 8.72 2 6 C1.34 6 0.68 6 0 6 C0 4.02 0 2.04 0 0 Z " fill="#CAD5D6" transform="translate(283,260)"/>
<path d="M0 0 C1 3 1 3 0.03125 5.63671875 C-5.36731314 16.3925295 -11.46341354 23.91101787 -22 30 C-24.30078125 30.69140625 -24.30078125 30.69140625 -26 31 C-23.47945145 28.29941227 -21.30728879 26.59662217 -18 25 C-17.67 24.34 -17.34 23.68 -17 23 C-16.34 23 -15.68 23 -15 23 C-15 22.01 -15 21.02 -15 20 C-13.33333333 19 -11.66666667 18 -10 17 C-5.07921356 12.07921356 -2.66366408 6.37012431 0 0 Z " fill="#BFC8CF" transform="translate(248,263)"/>
<path d="M0 0 C0 0.99 0 1.98 0 3 C-1.134375 3.45375 -2.26875 3.9075 -3.4375 4.375 C-7.04721692 5.57095806 -7.04721692 5.57095806 -8 8 C-8.99 8 -9.98 8 -11 8 C-11 8.66 -11 9.32 -11 10 C-11.66 10 -12.32 10 -13 10 C-13 10.66 -13 11.32 -13 12 C-13.66 12 -14.32 12 -15 12 C-15.33 13.32 -15.66 14.64 -16 16 C-16.66 16 -17.32 16 -18 16 C-18 16.99 -18 17.98 -18 19 C-18.66 19.33 -19.32 19.66 -20 20 C-20.33 20.99 -20.66 21.98 -21 23 C-21.66 23 -22.32 23 -23 23 C-20.02959599 13.49470718 -12.14838313 6.46956254 -4.125 1.0625 C-2 0 -2 0 0 0 Z " fill="#A9BEC0" transform="translate(396,209)"/>
<path d="M0 0 C-0.98041419 2.45103548 -1.6513818 3.76758786 -3.875 5.25 C-6 6 -6 6 -10 6 C-9.67 7.32 -9.34 8.64 -9 10 C-11.88087546 12.40072955 -14.56404834 14.47291037 -18 16 C-18 15.01 -18 14.02 -18 13 C-17.34 12.67 -16.68 12.34 -16 12 C-15.67 11.01 -15.34 10.02 -15 9 C-14.34 9 -13.68 9 -13 9 C-13 8.34 -13 7.68 -13 7 C-12.34 7 -11.68 7 -11 7 C-11 6.34 -11 5.68 -11 5 C-10.01 5 -9.02 5 -8 5 C-7.67 4.01 -7.34 3.02 -7 2 C-4.39757586 0.35179805 -3.13751221 0 0 0 Z " fill="#E0F4F3" transform="translate(396,212)"/>
<path d="M0 0 C1.32 0 2.64 0 4 0 C4 0.66 4 1.32 4 2 C5.65 2.33 7.3 2.66 9 3 C9 3.66 9 4.32 9 5 C11.64 5 14.28 5 17 5 C17 5.66 17 6.32 17 7 C22.94 6.67 28.88 6.34 35 6 C34.67 6.66 34.34 7.32 34 8 C30.85418577 8.02888514 27.70840531 8.04675923 24.5625 8.0625 C23.21575195 8.07506836 23.21575195 8.07506836 21.84179688 8.08789062 C20.56079102 8.09272461 20.56079102 8.09272461 19.25390625 8.09765625 C18.46314697 8.10289307 17.6723877 8.10812988 16.85766602 8.11352539 C15 8 15 8 14 7 C12.58479382 6.89473673 11.16759312 6.81571624 9.75 6.75 C5.92503666 6.3839748 5.08048854 6.06570493 1.9375 3.5 C0 1 0 1 0 0 Z " fill="#D7E7E9" transform="translate(389,288)"/>
<path d="M0 0 C-0.268125 0.61875 -0.53625 1.2375 -0.8125 1.875 C-1.204375 2.90625 -1.59625 3.9375 -2 5 C-2.28746094 5.65871094 -2.57492187 6.31742188 -2.87109375 6.99609375 C-5.96823036 15.15876936 -4.44297912 22.63279732 -3 31 C-3.66 30.34 -4.32 29.68 -5 29 C-5 28.01 -5 27.02 -5 26 C-5.66 26 -6.32 26 -7 26 C-7.05413245 23.10391407 -7.09373641 20.20884805 -7.125 17.3125 C-7.14175781 16.49587891 -7.15851563 15.67925781 -7.17578125 14.83789062 C-7.21854617 9.55642337 -7.00208348 5.4191842 -3.5 1.1875 C-2 0 -2 0 0 0 Z " fill="#ADB1B9" transform="translate(395,234)"/>
<path d="M0 0 C0.66 0 1.32 0 2 0 C2.12375 0.969375 2.2475 1.93875 2.375 2.9375 C2.684375 4.4534375 2.684375 4.4534375 3 6 C3.66 6.33 4.32 6.66 5 7 C5 9.64 5 12.28 5 15 C5.99 15.33 6.98 15.66 8 16 C9.125 19.3125 9.125 19.3125 10 23 C10.20625 23.804375 10.4125 24.60875 10.625 25.4375 C10.74875 25.953125 10.8725 26.46875 11 27 C8.29624068 26.00241815 7.21177611 25.42463656 5.90332031 22.80102539 C5.63100586 21.90891357 5.35869141 21.01680176 5.078125 20.09765625 C4.77519531 19.12505859 4.47226562 18.15246094 4.16015625 17.15039062 C3.85980469 16.13138672 3.55945313 15.11238281 3.25 14.0625 C2.93417969 13.04736328 2.61835938 12.03222656 2.29296875 10.98632812 C0 3.4870299 0 3.4870299 0 0 Z " fill="#ADBCC0" transform="translate(266,269)"/>
<path d="M0 0 C0.73734375 0.00773438 1.4746875 0.01546875 2.234375 0.0234375 C3.34039062 0.01183594 3.34039062 0.01183594 4.46875 0 C9.9810554 0.0201179 9.9810554 0.0201179 12.234375 2.2734375 C8.92442787 3.92841106 5.243145 3.37428085 1.609375 3.3359375 C0.80757812 3.33142578 0.00578125 3.32691406 -0.8203125 3.32226562 C-2.80211506 3.31046918 -4.78387933 3.29253355 -6.765625 3.2734375 C-6.765625 4.9234375 -6.765625 6.5734375 -6.765625 8.2734375 C-7.095625 8.2734375 -7.425625 8.2734375 -7.765625 8.2734375 C-7.890625 5.3984375 -7.890625 5.3984375 -7.765625 2.2734375 C-5.20613501 -0.28605249 -3.49355305 0.01275019 0 0 Z " fill="#A5B7BF" transform="translate(76.765625,205.7265625)"/>
<path d="M0 0 C0.33 0 0.66 0 1 0 C1 2.31 1 4.62 1 7 C1.99 7 2.98 7 4 7 C4.66 10.3 5.32 13.6 6 17 C15.24 17 24.48 17 34 17 C34 17.33 34 17.66 34 18 C29.90666095 18.07408587 25.81358067 18.1285704 21.71972656 18.16479492 C20.32675378 18.17989358 18.93382862 18.20037444 17.54101562 18.22631836 C15.54057115 18.26265122 13.53978173 18.27811192 11.5390625 18.29296875 C9.73236084 18.31653442 9.73236084 18.31653442 7.88916016 18.34057617 C6.9357373 18.22818604 5.98231445 18.1157959 5 18 C3 15 3 15 2.5 11.875 C2.2525 10.451875 2.2525 10.451875 2 9 C1.34 8.67 0.68 8.34 0 8 C0 5.36 0 2.72 0 0 Z " fill="#D7EBEC" transform="translate(271,276)"/>
<path d="M0 0 C0.33 0 0.66 0 1 0 C1 8.58 1 17.16 1 26 C-4.94 26.33 -10.88 26.66 -17 27 C-17.86988854 22.65055731 -18.03595522 21.02871475 -17 17 C-16.67 17 -16.34 17 -16 17 C-16 19.64 -16 22.28 -16 25 C-10.72 25 -5.44 25 0 25 C0 16.75 0 8.5 0 0 Z " fill="#DCE9E8" transform="translate(459,268)"/>
<path d="M0 0 C3.38055068 1.12685023 4.1079382 2.05384625 6.3125 4.75 C8.5422654 7.39725339 10.72300921 9.72656416 13.4375 11.875 C14.283125 12.57625 15.12875 13.2775 16 14 C16 14.66 16 15.32 16 16 C17.65 16.66 19.3 17.32 21 18 C20.34 18.33 19.68 18.66 19 19 C10.88038719 15.21358123 4.796592 9.51786769 0 2 C0 1.34 0 0.68 0 0 Z " fill="#BCC9CF" transform="translate(166,275)"/>
<path d="M0 0 C0.33 0.66 0.66 1.32 1 2 C-3.33620647 3.64409037 -6.99144725 4.29622288 -11.625 4.3125 C-13.28402344 4.33763672 -13.28402344 4.33763672 -14.9765625 4.36328125 C-18 4 -18 4 -22 1 C-14.74 0.67 -7.48 0.34 0 0 Z " fill="#E0F4F3" transform="translate(216,278)"/>
<path d="M0 0 C3.25 2.125 3.25 2.125 4.25 4.125 C3.198125 3.691875 3.198125 3.691875 2.125 3.25 C1.17625 2.87875 0.2275 2.5075 -0.75 2.125 C-1.636875 1.75375 -2.52375 1.3825 -3.4375 1 C-11.73087661 -1.19070326 -18.34189486 -0.05176023 -25.75 4.125 C-27.8209817 5.38893935 -29.77694123 6.70844498 -31.75 8.125 C-31.75 7.135 -31.75 6.145 -31.75 5.125 C-30.2109375 3.80859375 -30.2109375 3.80859375 -28.125 2.5625 C-27.45210938 2.14871094 -26.77921875 1.73492187 -26.0859375 1.30859375 C-18.11313754 -2.731136 -8.24817029 -3.9900896 0 0 Z " fill="#B0B9C3" transform="translate(426.75,225.875)"/>
<path d="M0 0 C5.94 0 11.88 0 18 0 C21.76453699 8.15649682 24.31785871 14.94102683 24 24 C23.67 24 23.34 24 23 24 C22.81824219 23.0821875 22.63648438 22.164375 22.44921875 21.21875 C21.08469461 14.55707318 19.63504789 8.27392354 17 2 C11.39 1.67 5.78 1.34 0 1 C0 0.67 0 0.34 0 0 Z " fill="#BCC2C7" transform="translate(250,208)"/>
<path d="M0 0 C0 0.33 0 0.66 0 1 C-2.31 1 -4.62 1 -7 1 C-7 0.34 -7 -0.32 -7 -1 C-9.81288705 -0.85980308 -12.62516885 -0.71312045 -15.4375 -0.5625 C-16.23994141 -0.52318359 -17.04238281 -0.48386719 -17.86914062 -0.44335938 C-21.75239561 -0.5945704 -21.75239561 -0.5945704 -25 1 C-27.67058851 1.14115161 -30.32432238 1.04247107 -33 1 C-24.08354697 -4.94430202 -9.48286061 -4.33299249 0 0 Z " fill="#B5C2C9" transform="translate(429,208)"/>
<path d="M0 0 C4.86250821 1.80092897 7.87235283 5.72915191 10.1328125 10.28125 C11.16824151 13.52745988 11.26552211 16.28427777 11.25 19.6875 C11.25515625 20.82574219 11.2603125 21.96398437 11.265625 23.13671875 C11 26 11 26 9 28 C9.06960938 27.10861328 9.06960938 27.10861328 9.140625 26.19921875 C9.58470328 16.00127823 6.31902157 7.89877696 0 0 Z " fill="#9FB4BA" transform="translate(431,230)"/>
<path d="M0 0 C4.61348006 4.61348006 5.86376726 13.66229782 6.125 20.0625 C6.08375 20.701875 6.0425 21.34125 6 22 C6.99 22.33 7.98 22.66 9 23 C9 25.64 9 28.28 9 31 C8.67 31 8.34 31 8 31 C8 29.02 8 27.04 8 25 C7.01 24.67 6.02 24.34 5 24 C5 22.02 5 20.04 5 18 C4.34 18 3.68 18 3 18 C3 15.36 3 12.72 3 10 C2.34 10 1.68 10 1 10 C0.67 6.7 0.34 3.4 0 0 Z " fill="#DCE9EB" transform="translate(267,210)"/>
<path d="M0 0 C7.59 0 15.18 0 23 0 C23.33 0.99 23.66 1.98 24 3 C24.99 3 25.98 3 27 3 C27.66 4.32 28.32 5.64 29 7 C28.484375 6.731875 27.96875 6.46375 27.4375 6.1875 C26.633125 5.795625 25.82875 5.40375 25 5 C24.030625 4.46375 23.06125 3.9275 22.0625 3.375 C15.38049879 0.50507323 6.93069582 1.40259055 0 3 C0 2.01 0 1.02 0 0 Z " fill="#D5E3E5" transform="translate(404,223)"/>
<path d="M0 0 C3.02419525 0.58803797 6.01758453 1.22678118 9 2 C9 2.99 9 3.98 9 5 C9.99 5 10.98 5 12 5 C12 5.66 12 6.32 12 7 C12.66 7 13.32 7 14 7 C14 7.99 14 8.98 14 10 C14.66 10 15.32 10 16 10 C16 11.65 16 13.3 16 15 C15.34 15 14.68 15 14 15 C13.443125 13.9275 12.88625 12.855 12.3125 11.75 C10.00696196 7.69684772 7.19533681 5.0976684 3 3 C3 2.34 3 1.68 3 1 C2.01 0.67 1.02 0.34 0 0 Z " fill="#BDCCD3" transform="translate(116,224)"/>
<path d="M0 0 C7.207269 3.20323067 10.804438 7.95616547 14 15 C14 15.66 14 16.32 14 17 C13.34 17 12.68 17 12 17 C12 15.68 12 14.36 12 13 C11.01 12.67 10.02 12.34 9 12 C9 11.01 9 10.02 9 9 C8.236875 8.773125 7.47375 8.54625 6.6875 8.3125 C2.84059518 6.43377904 1.84709886 3.69419772 0 0 Z " fill="#BFCDCE" transform="translate(137,212)"/>
<path d="M0 0 C1.65 0 3.3 0 5 0 C4.01 1.485 4.01 1.485 3 3 C0.375 3.1875 0.375 3.1875 -2 3 C-2.0825 3.598125 -2.165 4.19625 -2.25 4.8125 C-3.25036997 7.73024575 -4.29808749 8.53950675 -7 10 C-10.25 10.1875 -10.25 10.1875 -13 10 C-13 9.67 -13 9.34 -13 9 C-12.21625 8.9175 -11.4325 8.835 -10.625 8.75 C-7.86943709 8.29090262 -7.86943709 8.29090262 -6.875 6.0625 C-6.58625 5.381875 -6.2975 4.70125 -6 4 C-3 2 -3 2 0 2 C0 1.34 0 0.68 0 0 Z " fill="#DAF0F2" transform="translate(100,210)"/>
<path d="M0 0 C2.328125 -0.16015625 2.328125 -0.16015625 5 0 C9.37788249 4.0793905 10.63366929 6.8944881 11 13 C10.34 13 9.68 13 9 13 C9 11.35 9 9.7 9 8 C8.01 8 7.02 8 6 8 C4.39453125 6.25 4.39453125 6.25 2.8125 4 C2.28269531 3.2575 1.75289062 2.515 1.20703125 1.75 C0.80871094 1.1725 0.41039062 0.595 0 0 Z " fill="#D8ECED" transform="translate(220,228)"/>
<path d="M0 0 C5.94 0 11.88 0 18 0 C18 0.33 18 0.66 18 1 C12.39 1 6.78 1 1 1 C1 1.99 1 2.98 1 4 C1.66 4 2.32 4 3 4 C3 6.97 3 9.94 3 13 C3.66 13 4.32 13 5 13 C4.67 13.66 4.34 14.32 4 15 C3.34 14.67 2.68 14.34 2 14 C2 11.69 2 9.38 2 7 C1.34 7 0.68 7 0 7 C0 4.69 0 2.38 0 0 Z " fill="#D4E4E6" transform="translate(249,209)"/>
<path d="M0 0 C0.66 0 1.32 0 2 0 C1.67279478 6.21689926 -1.52799495 11.00899274 -5 16 C-5.33 16 -5.66 16 -6 16 C-6.25532751 12.93606987 -6.21861333 11.36766788 -4.625 8.6875 C-3.820625 7.8521875 -3.820625 7.8521875 -3 7 C-2.34 7 -1.68 7 -1 7 C-1.020625 6.030625 -1.04125 5.06125 -1.0625 4.0625 C-1 1 -1 1 0 0 Z " fill="#DBEAEB" transform="translate(246,262)"/>
<path d="M0 0 C0.33 0 0.66 0 1 0 C1.10871967 2.54283234 1.18762401 5.08095088 1.25 7.625 C1.28351563 8.33785156 1.31703125 9.05070313 1.3515625 9.78515625 C1.44665403 14.96764452 0.47880617 17.91562387 -3 22 C-3.66 22 -4.32 22 -5 22 C-3.99806563 18.20696275 -3.18975773 15.28463659 -1 12 C-0.54084493 9.03157342 -0.54084493 9.03157342 -0.375 5.8125 C-0.26285156 4.18248047 -0.26285156 4.18248047 -0.1484375 2.51953125 C-0.09945313 1.68808594 -0.05046875 0.85664063 0 0 Z " fill="#B1C7C9" transform="translate(442,244)"/>
<path d="M0 0 C0.66 0 1.32 0 2 0 C2 1.65 2 3.3 2 5 C2.99 5.33 3.98 5.66 5 6 C5 8.97 5 11.94 5 15 C5.66 15 6.32 15 7 15 C7 17.31 7 19.62 7 22 C6.67 22 6.34 22 6 22 C6 20.02 6 18.04 6 16 C5.34 16 4.68 16 4 16 C3.32815382 13.89748139 2.66269032 11.79292237 2 9.6875 C1.443125 7.92986328 1.443125 7.92986328 0.875 6.13671875 C0 3 0 3 0 0 Z " fill="#CEE1E2" transform="translate(262,253)"/>
<path d="M0 0 C0.33 0 0.66 0 1 0 C1 1.98 1 3.96 1 6 C0.34 6 -0.32 6 -1 6 C-1 8.97 -1 11.94 -1 15 C-1.99 15.33 -2.98 15.66 -4 16 C-4 17.65 -4 19.3 -4 21 C-4.33 21 -4.66 21 -5 21 C-5.37851209 15.06997733 -4.10575375 10.52760359 -2 5 C-1.34 5 -0.68 5 0 5 C0 3.35 0 1.7 0 0 Z " fill="#D3E0DF" transform="translate(308,229)"/>
<path d="M0 0 C5.71658336 -0.45732667 8.48649253 0.47726246 13 4 C9.42355152 5.2380014 6.66305234 4.74926071 3 4 C3 3.34 3 2.68 3 2 C2.01 1.67 1.02 1.34 0 1 C0 0.67 0 0.34 0 0 Z " fill="#E9FBFB" transform="translate(126,210)"/>
<path d="M0 0 C-2.13790949 2.35170044 -4.00593401 3.88791835 -7 5 C-10.25 5.125 -10.25 5.125 -13 5 C-8.49251112 0.34226149 -6.53321609 -0.12098548 0 0 Z " fill="#E3F5F5" transform="translate(437,288)"/>
<path d="M0 0 C0.33 0 0.66 0 1 0 C1.13277344 1.20398438 1.26554688 2.40796875 1.40234375 3.6484375 C1.5805302 5.22398085 1.7589265 6.79950047 1.9375 8.375 C2.02451172 9.1690625 2.11152344 9.963125 2.20117188 10.78125 C2.6038935 15.02255001 2.6038935 15.02255001 4 19 C3.01 18.67 2.02 18.34 1 18 C-1.23945397 12.46029807 -1.48879199 6.93370743 -1 1 C-0.67 0.67 -0.34 0.34 0 0 Z " fill="#C7D7D9" transform="translate(177,246)"/>
<path d="M0 0 C1.32 0.33 2.64 0.66 4 1 C3.34 1 2.68 1 2 1 C2.020625 2.11375 2.04125 3.2275 2.0625 4.375 C2 8 2 8 1 10 C-0.32 9.67 -1.64 9.34 -3 9 C-2 6 -1 3 0 0 Z " fill="#E1F8F8" transform="translate(306,283)"/>
<path d="M0 0 C0.99 0 1.98 0 3 0 C4.52106634 3.04213267 4.37429338 6.28047572 4.5625 9.625 C4.60568359 10.33140625 4.64886719 11.0378125 4.69335938 11.765625 C4.79944751 13.51018537 4.90022889 15.25506697 5 17 C4.34 17.33 3.68 17.66 3 18 C2.86722656 16.95199219 2.73445313 15.90398437 2.59765625 14.82421875 C2.41942765 13.44529222 2.24103359 12.06638707 2.0625 10.6875 C1.97548828 9.99720703 1.88847656 9.30691406 1.79882812 8.59570312 C1.40789865 5.59857712 0.9584996 2.87549881 0 0 Z " fill="#E6F9F8" transform="translate(441,241)"/>
<path d="M0 0 C-0.59167969 0.37511719 -1.18335938 0.75023437 -1.79296875 1.13671875 C-6.35981624 4.09436713 -10.3317794 6.97679031 -14 11 C-14 7.39372334 -12.82710719 6.08464484 -10.5 3.43359375 C-7.18380341 0.26420795 -4.42021046 -1.47340349 0 0 Z " fill="#B4B9C3" transform="translate(196,227)"/>
<path d="M0 0 C0.33 0 0.66 0 1 0 C1 3.3 1 6.6 1 10 C-0.65 10 -2.3 10 -4 10 C-4.2475 9.21625 -4.495 8.4325 -4.75 7.625 C-6.15389099 4.67682892 -7.00675737 4.0975223 -10 3 C-9.01 3 -8.02 3 -7 3 C-6 4 -5 5 -4 6 C-1.89667109 6.71447643 -1.89667109 6.71447643 0 7 C0 4.69 0 2.38 0 0 Z " fill="#D5E2E2" transform="translate(442,210)"/>
<path d="M0 0 C6.6 0 13.2 0 20 0 C19.67 0.99 19.34 1.98 19 3 C18.67 2.67 18.34 2.34 18 2 C15.93951522 1.89977613 13.87541556 1.87033804 11.8125 1.875 C10.12060547 1.87113281 10.12060547 1.87113281 8.39453125 1.8671875 C5.17584633 1.99311994 2.16019928 2.39577373 -1 3 C-0.67 2.01 -0.34 1.02 0 0 Z " fill="#E4EBEB" transform="translate(102,223)"/>
<path d="M0 0 C0.33 0 0.66 0 1 0 C1.06058594 1.07121094 1.12117187 2.14242187 1.18359375 3.24609375 C1.26798537 4.64324391 1.35263406 6.04037857 1.4375 7.4375 C1.47681641 8.14455078 1.51613281 8.85160156 1.55664062 9.58007812 C1.47624438 13.08690419 1.47624438 13.08690419 3 16 C3.04080783 17.99958364 3.04254356 20.00045254 3 22 C2.67 21.34 2.34 20.68 2 20 C1.34 20 0.68 20 0 20 C0 13.4 0 6.8 0 0 Z " fill="#E5F6F5" transform="translate(162,246)"/>
<path d="M0 0 C1.26328125 0.02707031 2.5265625 0.05414063 3.828125 0.08203125 C4.79234375 0.11683594 5.7565625 0.15164062 6.75 0.1875 C6.75 0.5175 6.75 0.8475 6.75 1.1875 C4.69921875 1.41536458 2.6484375 1.64322917 0.59765625 1.87109375 C-1.26140229 2.00636614 -1.26140229 2.00636614 -2.25 3.1875 C-3.76928038 3.25929964 -5.29167482 3.27142007 -6.8125 3.25 C-7.63878906 3.24097656 -8.46507813 3.23195312 -9.31640625 3.22265625 C-9.95449219 3.21105469 -10.59257813 3.19945312 -11.25 3.1875 C-7.67487951 -0.25219926 -4.83224625 -0.13422906 0 0 Z " fill="#E2EFEF" transform="translate(116.25,206.8125)"/>
<path d="M0 0 C1.32 0 2.64 0 4 0 C4 0.66 4 1.32 4 2 C6.97 2.33 9.94 2.66 13 3 C13 3.66 13 4.32 13 5 C5.57142857 5.28571429 5.57142857 5.28571429 2 3 C2 2.34 2 1.68 2 1 C1.34 0.67 0.68 0.34 0 0 Z " fill="#DCEEF1" transform="translate(180,288)"/>
<path d="M0 0 C0.99 0.33 1.98 0.66 3 1 C3 2.32 3 3.64 3 5 C3.66 5 4.32 5 5 5 C5 6.65 5 8.3 5 10 C3.0625 9.5 3.0625 9.5 1 8 C0.31209578 5.30341548 0.18053536 2.7982981 0 0 Z " fill="#DCF1F1" transform="translate(146,224)"/>
<path d="M0 0 C0.99 0.33 1.98 0.66 3 1 C1.375 8.75 1.375 8.75 -2 11 C-1.125 3.375 -1.125 3.375 0 0 Z " fill="#E0EEED" transform="translate(317,253)"/>
<path d="M0 0 C1.485 0.99 1.485 0.99 3 2 C3.34057617 4.24658203 3.34057617 4.24658203 3.29296875 7.0078125 C3.28330078 7.99394531 3.27363281 8.98007813 3.26367188 9.99609375 C3.23853516 11.02863281 3.21339844 12.06117188 3.1875 13.125 C3.17396484 14.16527344 3.16042969 15.20554688 3.14648438 16.27734375 C3.11105228 18.85207627 3.06165221 21.4257833 3 24 C2.67 24 2.34 24 2 24 C1.93941406 22.68644531 1.87882813 21.37289063 1.81640625 20.01953125 C1.73196744 18.28384459 1.64732112 16.54816802 1.5625 14.8125 C1.52318359 13.94818359 1.48386719 13.08386719 1.44335938 12.19335938 C1.23652984 8.04085878 0.99896469 4.05462138 0 0 Z " fill="#C1D8D9" transform="translate(132,239)"/>
<path d="M0 0 C0 3.3 0 6.6 0 10 C-0.99 10.33 -1.98 10.66 -3 11 C-3 7.7 -3 4.4 -3 1 C-1 0 -1 0 0 0 Z " fill="#DEF6F6" transform="translate(235,247)"/>
<path d="M0 0 C2 1 2 1 3.0625 4 C3.371875 4.99 3.68125 5.98 4 7 C4.33 7.33 4.66 7.66 5 8 C5.14115161 10.67058851 5.04247107 13.32432238 5 16 C5.66 16 6.32 16 7 16 C7 16.66 7 17.32 7 18 C6.01 18 5.02 18 4 18 C4 15.03 4 12.06 4 9 C3.01 8.67 2.02 8.34 1 8 C0.67 5.36 0.34 2.72 0 0 Z " fill="#D1E5E5" transform="translate(276,241)"/>
<path d="M0 0 C0.99 0.33 1.98 0.66 3 1 C2.07038578 2.15224028 1.1309875 3.29659176 0.1875 4.4375 C-0.59560547 5.39462891 -0.59560547 5.39462891 -1.39453125 6.37109375 C-3 8 -3 8 -6 9 C-5.70381606 5.44579276 -5.19662957 4.19662957 -2.625 1.625 C-1.325625 0.820625 -1.325625 0.820625 0 0 Z " fill="#E5F6F5" transform="translate(97,226)"/>
<path d="M0 0 C1.32 0 2.64 0 4 0 C4 0.99 4 1.98 4 3 C3.34 3 2.68 3 2 3 C1.67 3.99 1.34 4.98 1 6 C0.34 6 -0.32 6 -1 6 C-1.33 7.32 -1.66 8.64 -2 10 C-1.85950482 8.52031676 -1.71245174 7.04125484 -1.5625 5.5625 C-1.48128906 4.73878906 -1.40007812 3.91507813 -1.31640625 3.06640625 C-1 1 -1 1 0 0 Z " fill="#DFEFEF" transform="translate(391,231)"/>
<path d="M0 0 C0.66 0 1.32 0 2 0 C2.33 1.65 2.66 3.3 3 5 C3.99 5.33 4.98 5.66 6 6 C7.6875 8.0625 7.6875 8.0625 9 10 C8.67 10.66 8.34 11.32 8 12 C6 10.6875 6 10.6875 4 9 C4 8.01 4 7.02 4 6 C3.01 6 2.02 6 1 6 C0.67 4.02 0.34 2.04 0 0 Z " fill="#C9CED1" transform="translate(388,260)"/>
<path d="M0 0 C0.33 0 0.66 0 1 0 C1 2.31 1 4.62 1 7 C1.66 7 2.32 7 3 7 C3.66 9.97 4.32 12.94 5 16 C1.04086703 12.04086703 -0.11524262 9.21017701 -0.125 3.6875 C-0.08375 2.470625 -0.0425 1.25375 0 0 Z " fill="#C5CCCE" transform="translate(161,259)"/>
<path d="M0 0 C0.66 0 1.32 0 2 0 C2 2.31 2 4.62 2 7 C3.32 6.67 4.64 6.34 6 6 C5.67 6.99 5.34 7.98 5 9 C3.35 9 1.7 9 0 9 C0 6.03 0 3.06 0 0 Z " fill="#CEE5E6" transform="translate(87,210)"/>
<path d="M0 0 C0.33 0 0.66 0 1 0 C1 1.65 1 3.3 1 5 C0.34 5 -0.32 5 -1 5 C-1 7.64 -1 10.28 -1 13 C-1.99 13 -2.98 13 -4 13 C-4 12.01 -4 11.02 -4 10 C-3.34 10 -2.68 10 -2 10 C-2.04125 8.906875 -2.0825 7.81375 -2.125 6.6875 C-2 3 -2 3 0 0 Z " fill="#DCEFF0" transform="translate(298,264)"/>
<path d="M0 0 C0.99 1.485 0.99 1.485 2 3 C3.84188612 5.05270463 3.84188612 5.05270463 6 6 C4.6875 7.5 4.6875 7.5 3 9 C2.01 9 1.02 9 0 9 C0 6.03 0 3.06 0 0 Z " fill="#B0BCC2" transform="translate(89,208)"/>
<path d="M0 0 C0.99 0 1.98 0 3 0 C2.34 2.97 1.68 5.94 1 9 C0.34 9 -0.32 9 -1 9 C-1.33 9.66 -1.66 10.32 -2 11 C-2 9.68 -2 8.36 -2 7 C-1.34 7 -0.68 7 0 7 C0 4.69 0 2.38 0 0 Z " fill="#D6E5E4" transform="translate(312,269)"/>
<path d="M0 0 C0.33 0 0.66 0 1 0 C1.63019694 9.01531729 1.63019694 9.01531729 -1 13.125 C-1.66 13.74375 -2.32 14.3625 -3 15 C-3.66 14.67 -4.32 14.34 -5 14 C-4.0409375 12.7625 -4.0409375 12.7625 -3.0625 11.5 C-0.53586919 7.76808594 -0.30639772 4.44276697 0 0 Z " fill="#D9F0F1" transform="translate(443,252)"/>
<path d="M0 0 C0.99 0.33 1.98 0.66 3 1 C1.02 5.455 1.02 5.455 -1 10 C-1.33 10 -1.66 10 -2 10 C-2.1953125 3.9453125 -2.1953125 3.9453125 -2 2 C-1.34 1.34 -0.68 0.68 0 0 Z " fill="#D6EAEB" transform="translate(180,234)"/>
<path d="M0 0 C0 0.99 0 1.98 0 3 C-1.7015625 3.680625 -1.7015625 3.680625 -3.4375 4.375 C-7.04721692 5.57095806 -7.04721692 5.57095806 -8 8 C-8.66 7.67 -9.32 7.34 -10 7 C-3.18421053 0 -3.18421053 0 0 0 Z " fill="#B1C1C7" transform="translate(396,209)"/>
<path d="M0 0 C0.66 0.33 1.32 0.66 2 1 C-0.05233685 3.2477975 -1.00667261 4.0022242 -4 5 C-6.33299825 5.03954234 -8.66708189 5.04401732 -11 5 C-11 4.67 -11 4.34 -11 4 C-10.37351562 3.79503906 -9.74703125 3.59007812 -9.1015625 3.37890625 C-8.28429687 3.10949219 -7.46703125 2.84007812 -6.625 2.5625 C-5.81289063 2.29566406 -5.00078125 2.02882813 -4.1640625 1.75390625 C-1.98968201 1.04820271 -1.98968201 1.04820271 0 0 Z " fill="#A2B4B9" transform="translate(428,273)"/>
<path d="M0 0 C0.66 0 1.32 0 2 0 C3.35439668 2.70879335 3.06501451 5.00933268 3 8 C3.66 8 4.32 8 5 8 C5 9.65 5 11.3 5 13 C3.5 11.9375 3.5 11.9375 2 10 C1.8125 6.3125 1.8125 6.3125 2 3 C1.34 3 0.68 3 0 3 C0 2.01 0 1.02 0 0 Z " fill="#D1E3E4" transform="translate(371,261)"/>
<path d="M0 0 C0.36625971 4.51720311 0.36625971 4.51720311 -1.375 6.8125 C-3 8 -3 8 -5 8 C-5 4 -5 4 -3.0625 1.75 C-1 0 -1 0 0 0 Z " fill="#E2F9F9" transform="translate(232,263)"/>
<path d="M0 0 C0.99 0.495 0.99 0.495 2 1 C2.74118205 3.31074405 3.40206327 5.64811553 4 8 C4.309375 9.2065625 4.309375 9.2065625 4.625 10.4375 C4.74875 10.953125 4.8725 11.46875 5 12 C3.046875 11.3203125 3.046875 11.3203125 1 10 C0.390625 7.6171875 0.390625 7.6171875 0.25 4.875 C0.19328125 3.96492188 0.1365625 3.05484375 0.078125 2.1171875 C0.05234375 1.41851562 0.0265625 0.71984375 0 0 Z " fill="#B2C6C7" transform="translate(272,284)"/>
<path d="M0 0 C0.6875 1.625 0.6875 1.625 1 4 C-0.4375 7.25 -0.4375 7.25 -2 10 C-2.99 9.67 -3.98 9.34 -5 9 C-4.67 7.68 -4.34 6.36 -4 5 C-4 5.66 -4 6.32 -4 7 C-3.34 7 -2.68 7 -2 7 C-1.34 4.69 -0.68 2.38 0 0 Z " fill="#B5B9C1" transform="translate(294,269)"/>
<path d="M0 0 C0.66 0 1.32 0 2 0 C2 0.66 2 1.32 2 2 C1.34 2 0.68 2 0 2 C0 3.65 0 5.3 0 7 C-0.66 7 -1.32 7 -2 7 C-2.33 8.32 -2.66 9.64 -3 11 C-3 8.69 -3 6.38 -3 4 C-2.34 4 -1.68 4 -1 4 C-0.67 2.68 -0.34 1.36 0 0 Z " fill="#CEE5E4" transform="translate(376,228)"/>
<path d="M0 0 C-4.75 4 -4.75 4 -7 4 C-6.625 2.0625 -6.625 2.0625 -6 0 C-3.50907189 -1.24546405 -2.58919267 -0.7767578 0 0 Z " fill="#E6F4F5" transform="translate(196,224)"/>
<path d="M0 0 C3.09423168 3.09423168 3.93706005 6.5523812 4.125 10.875 C4.08375 11.57625 4.0425 12.2775 4 13 C3.67 12.01 3.34 11.02 3 10 C2.34 10 1.68 10 1 10 C0.67 6.7 0.34 3.4 0 0 Z " fill="#D5E2E0" transform="translate(267,210)"/>
<path d="M0 0 C2.64 0.33 5.28 0.66 8 1 C8.33 1.99 8.66 2.98 9 4 C9.66 4.33 10.32 4.66 11 5 C6.87248551 4.39301257 3.6678852 2.96189209 0 1 C0 0.67 0 0.34 0 0 Z " fill="#E1F3F5" transform="translate(222,213)"/>
<path d="M0 0 C1.5 1.125 1.5 1.125 3 3 C3.1875 6.1875 3.1875 6.1875 3 9 C2.67 8.34 2.34 7.68 2 7 C1.34 7 0.68 7 0 7 C0 4.69 0 2.38 0 0 Z " fill="#E6FAF9" transform="translate(371,254)"/>
<path d="M0 0 C0.99 0.33 1.98 0.66 3 1 C3 2.65 3 4.3 3 6 C3.66 6 4.32 6 5 6 C5 7.32 5 8.64 5 10 C4.01 9.67 3.02 9.34 2 9 C2 6.69 2 4.38 2 2 C1.34 2 0.68 2 0 2 C0 1.34 0 0.68 0 0 Z " fill="#DAECE8" transform="translate(243,232)"/>
<path d="M0 0 C0.66 0 1.32 0 2 0 C4.125 4.625 4.125 4.625 3 8 C1.5 6.8125 1.5 6.8125 0 5 C-0.1875 2.3125 -0.1875 2.3125 0 0 Z " fill="#DBF5F5" transform="translate(132,234)"/>
<path d="M0 0 C2.04219706 1.69179328 2.91793306 2.63727666 3.51171875 5.26171875 C3.56972656 6.06222656 3.62773437 6.86273438 3.6875 7.6875 C3.75324219 8.49574219 3.81898438 9.30398437 3.88671875 10.13671875 C3.92410156 10.75160156 3.96148437 11.36648437 4 12 C3.34 12 2.68 12 2 12 C2 9.69 2 7.38 2 5 C1.34 5 0.68 5 0 5 C0 3.35 0 1.7 0 0 Z " fill="#D1E5E9" transform="translate(254,227)"/>
<path d="M0 0 C0.99 0 1.98 0 3 0 C3 0.99 3 1.98 3 3 C3.99 3.33 4.98 3.66 6 4 C5.67 5.32 5.34 6.64 5 8 C4.16382818 6.8562364 3.33113541 5.70992861 2.5 4.5625 C2.0359375 3.92441406 1.571875 3.28632813 1.09375 2.62890625 C0 1 0 1 0 0 Z " fill="#E0F5F5" transform="translate(430,225)"/>
<path d="M0 0 C0.33 0 0.66 0 1 0 C1 2.64 1 5.28 1 8 C1.99 8.33 2.98 8.66 4 9 C2.68 9.33 1.36 9.66 0 10 C-0.95024979 6.30458414 -0.95024979 3.69541586 0 0 Z " fill="#CDE8E7" transform="translate(442,285)"/>
<path d="M0 0 C2.66666667 1.33333333 5.33333333 2.66666667 8 4 C8 4.33 8 4.66 8 5 C5.69 4.67 3.38 4.34 1 4 C0.67 2.68 0.34 1.36 0 0 Z " fill="#DBF3F3" transform="translate(397,274)"/>
<path d="M0 0 C0.33 0.99 0.66 1.98 1 3 C0.67 3.66 0.34 4.32 0 5 C-0.99 5 -1.98 5 -3 5 C-3.33 5.99 -3.66 6.98 -4 8 C-4.66 7.67 -5.32 7.34 -6 7 C-4.02 4.69 -2.04 2.38 0 0 Z " fill="#D4E9E8" transform="translate(173,220)"/>
<path d="M0 0 C3.43595166 1.52708963 6.11912454 3.59927045 9 6 C8.67 6.66 8.34 7.32 8 8 C6.66372225 6.85760183 5.33104612 5.71098945 4 4.5625 C3.2575 3.92441406 2.515 3.28632813 1.75 2.62890625 C1.1725 2.09136719 0.595 1.55382812 0 1 C0 0.67 0 0.34 0 0 Z " fill="#B6C0C4" transform="translate(137,212)"/>
<path d="M0 0 C0.99 0.33 1.98 0.66 3 1 C0.12835434 3.70272533 -1.30991841 4.94791837 -5.3125 5.25 C-6.199375 5.1675 -7.08625 5.085 -8 5 C-8 4.67 -8 4.34 -8 4 C-7.236875 3.896875 -6.47375 3.79375 -5.6875 3.6875 C-2.82940576 2.95635961 -1.84257115 2.23048087 0 0 Z " fill="#E5F8F7" transform="translate(95,215)"/>
<path d="M0 0 C0 1.98 0 3.96 0 6 C-0.33 5.01 -0.66 4.02 -1 3 C-2.98 3.66 -4.96 4.32 -7 5 C-2.25 0 -2.25 0 0 0 Z " fill="#C0C5CB" transform="translate(440,287)"/>
<path d="M0 0 C5.75 1.625 5.75 1.625 8 5 C7.01 5 6.02 5 5 5 C5 4.34 5 3.68 5 3 C3.35 3 1.7 3 0 3 C0 2.01 0 1.02 0 0 Z " fill="#D6E8E5" transform="translate(131,210)"/>
</svg>
